<svg width="1920" height="690" viewBox="0 0 1920 690" fill="none" xmlns="http://www.w3.org/2000/svg">
<g clip-path="url(#clip0_41_4)">
<rect width="1920" height="690" fill="#2F2F2F"/>
<path d="M171.908 154V120.4H186.932C190.708 120.4 193.652 121.152 195.764 122.656C197.876 124.128 198.932 126.256 198.932 129.04C198.932 131.792 197.924 133.92 195.908 135.424C193.892 136.896 191.236 137.632 187.94 137.632L188.804 135.904C192.548 135.904 195.444 136.656 197.492 138.16C199.54 139.664 200.564 141.84 200.564 144.688C200.564 147.6 199.492 149.888 197.348 151.552C195.204 153.184 192.036 154 187.844 154H171.908ZM178.052 149.2H187.652C189.828 149.2 191.476 148.8 192.596 148C193.716 147.168 194.276 145.904 194.276 144.208C194.276 142.512 193.716 141.28 192.596 140.512C191.476 139.712 189.828 139.312 187.652 139.312H178.052V149.2ZM178.052 134.752H186.404C188.42 134.752 189.956 134.352 191.012 133.552C192.068 132.72 192.596 131.536 192.596 130C192.596 128.4 192.068 127.2 191.012 126.4C189.956 125.6 188.42 125.2 186.404 125.2H178.052V134.752ZM222.553 154V148.816L222.217 147.712V138.64C222.217 136.88 221.689 135.52 220.633 134.56C219.577 133.568 217.977 133.072 215.833 133.072C214.393 133.072 212.969 133.296 211.561 133.744C210.185 134.192 209.017 134.816 208.057 135.616L205.705 131.248C207.081 130.192 208.713 129.408 210.601 128.896C212.521 128.352 214.505 128.08 216.553 128.08C220.265 128.08 223.129 128.976 225.145 130.768C227.193 132.528 228.217 135.264 228.217 138.976V154H222.553ZM214.489 154.336C212.569 154.336 210.889 154.016 209.449 153.376C208.009 152.704 206.889 151.792 206.089 150.64C205.321 149.456 204.937 148.128 204.937 146.656C204.937 145.216 205.273 143.92 205.945 142.768C206.649 141.616 207.785 140.704 209.353 140.032C210.921 139.36 213.001 139.024 215.593 139.024H223.033V143.008H216.025C213.977 143.008 212.601 143.344 211.897 144.016C211.193 144.656 210.841 145.456 210.841 146.416C210.841 147.504 211.273 148.368 212.137 149.008C213.001 149.648 214.201 149.968 215.737 149.968C217.209 149.968 218.521 149.632 219.673 148.96C220.857 148.288 221.705 147.296 222.217 145.984L223.225 149.584C222.649 151.088 221.609 152.256 220.105 153.088C218.633 153.92 216.761 154.336 214.489 154.336ZM252.873 148.912L251.577 150.352V128.368H257.577V150.352L256.137 148.912H268.809L267.417 150.352V128.368H273.417V154H235.641V128.368H241.641V150.352L240.249 148.912H252.873ZM310.303 154V148.816L309.967 147.712V138.64C309.967 136.88 309.439 135.52 308.383 134.56C307.327 133.568 305.727 133.072 303.583 133.072C302.143 133.072 300.719 133.296 299.311 133.744C297.935 134.192 296.767 134.816 295.807 135.616L293.455 131.248C294.831 130.192 296.463 129.408 298.351 128.896C300.271 128.352 302.255 128.08 304.303 128.08C308.015 128.08 310.879 128.976 312.895 130.768C314.943 132.528 315.967 135.264 315.967 138.976V154H310.303ZM302.239 154.336C300.319 154.336 298.639 154.016 297.199 153.376C295.759 152.704 294.639 151.792 293.839 150.64C293.071 149.456 292.687 148.128 292.687 146.656C292.687 145.216 293.023 143.92 293.695 142.768C294.399 141.616 295.535 140.704 297.103 140.032C298.671 139.36 300.751 139.024 303.343 139.024H310.783V143.008H303.775C301.727 143.008 300.351 143.344 299.647 144.016C298.943 144.656 298.591 145.456 298.591 146.416C298.591 147.504 299.023 148.368 299.887 149.008C300.751 149.648 301.951 149.968 303.487 149.968C304.959 149.968 306.271 149.632 307.423 148.96C308.607 148.288 309.455 147.296 309.967 145.984L310.975 149.584C310.399 151.088 309.359 152.256 307.855 153.088C306.383 153.92 304.511 154.336 302.239 154.336ZM341.775 154L332.511 141.712L337.407 138.688L348.831 154H341.775ZM323.391 154V128.368H329.391V154H323.391ZM327.615 143.728V138.736H336.303V143.728H327.615ZM337.983 141.904L332.367 141.232L341.775 128.368H348.207L337.983 141.904ZM371.447 154L362.183 141.712L367.079 138.688L378.503 154H371.447ZM353.063 154V128.368H359.063V154H353.063ZM357.287 143.728V138.736H365.975V143.728H357.287ZM367.655 141.904L362.039 141.232L371.447 128.368H377.879L367.655 141.904ZM397.818 154V148.816L397.482 147.712V138.64C397.482 136.88 396.954 135.52 395.898 134.56C394.842 133.568 393.242 133.072 391.098 133.072C389.658 133.072 388.234 133.296 386.826 133.744C385.45 134.192 384.282 134.816 383.322 135.616L380.97 131.248C382.346 130.192 383.978 129.408 385.866 128.896C387.786 128.352 389.77 128.08 391.818 128.08C395.53 128.08 398.394 128.976 400.41 130.768C402.458 132.528 403.482 135.264 403.482 138.976V154H397.818ZM389.754 154.336C387.834 154.336 386.154 154.016 384.714 153.376C383.274 152.704 382.154 151.792 381.354 150.64C380.586 149.456 380.202 148.128 380.202 146.656C380.202 145.216 380.538 143.92 381.21 142.768C381.914 141.616 383.05 140.704 384.618 140.032C386.186 139.36 388.266 139.024 390.858 139.024H398.298V143.008H391.29C389.242 143.008 387.866 143.344 387.162 144.016C386.458 144.656 386.106 145.456 386.106 146.416C386.106 147.504 386.538 148.368 387.402 149.008C388.266 149.648 389.466 149.968 391.002 149.968C392.474 149.968 393.786 149.632 394.938 148.96C396.122 148.288 396.97 147.296 397.482 145.984L398.49 149.584C397.914 151.088 396.874 152.256 395.37 153.088C393.898 153.92 392.026 154.336 389.754 154.336ZM413.211 163.648C411.963 163.648 410.715 163.44 409.467 163.024C408.219 162.608 407.179 162.032 406.347 161.296L408.747 156.88C409.355 157.424 410.043 157.856 410.811 158.176C411.579 158.496 412.363 158.656 413.163 158.656C414.251 158.656 415.131 158.384 415.803 157.84C416.475 157.296 417.099 156.384 417.675 155.104L419.163 151.744L419.643 151.024L429.339 128.368H435.099L423.099 156.064C422.299 157.984 421.403 159.504 420.411 160.624C419.451 161.744 418.363 162.528 417.147 162.976C415.963 163.424 414.651 163.648 413.211 163.648ZM418.491 154.912L406.923 128.368H413.163L422.571 150.496L418.491 154.912ZM439.266 154V128.368H445.266V138.784H458.178V128.368H464.178V154H458.178V143.872H445.266V154H439.266ZM477.548 154V132.016L478.94 133.456H468.524V128.368H492.524V133.456H482.156L483.548 132.016V154H477.548Z" fill="white"/>
<path d="M171 189H581" stroke="white" stroke-width="3" stroke-linecap="round"/>
<path d="M171.17 248V220H182.69C185.17 220 187.29 220.4 189.05 221.2C190.837 222 192.21 223.147 193.17 224.64C194.13 226.133 194.61 227.907 194.61 229.96C194.61 232.013 194.13 233.787 193.17 235.28C192.21 236.773 190.837 237.92 189.05 238.72C187.29 239.52 185.17 239.92 182.69 239.92H174.05L176.37 237.48V248H171.17ZM176.37 238.04L174.05 235.52H182.45C184.743 235.52 186.463 235.04 187.61 234.08C188.783 233.093 189.37 231.72 189.37 229.96C189.37 228.173 188.783 226.8 187.61 225.84C186.463 224.88 184.743 224.4 182.45 224.4H174.05L176.37 221.84V238.04ZM208.851 248.28C206.478 248.28 204.398 247.813 202.611 246.88C200.851 245.92 199.478 244.613 198.491 242.96C197.531 241.307 197.051 239.427 197.051 237.32C197.051 235.187 197.518 233.307 198.451 231.68C199.411 230.027 200.718 228.733 202.371 227.8C204.051 226.867 205.958 226.4 208.091 226.4C210.171 226.4 212.025 226.853 213.651 227.76C215.278 228.667 216.558 229.947 217.491 231.6C218.425 233.253 218.891 235.2 218.891 237.44C218.891 237.653 218.878 237.893 218.851 238.16C218.851 238.427 218.838 238.68 218.811 238.92H201.011V235.6H216.171L214.211 236.64C214.238 235.413 213.985 234.333 213.451 233.4C212.918 232.467 212.185 231.733 211.251 231.2C210.345 230.667 209.291 230.4 208.091 230.4C206.865 230.4 205.785 230.667 204.851 231.2C203.945 231.733 203.225 232.48 202.691 233.44C202.185 234.373 201.931 235.48 201.931 236.76V237.56C201.931 238.84 202.225 239.973 202.811 240.96C203.398 241.947 204.225 242.707 205.291 243.24C206.358 243.773 207.585 244.04 208.971 244.04C210.171 244.04 211.251 243.853 212.211 243.48C213.171 243.107 214.025 242.52 214.771 241.72L217.451 244.8C216.491 245.92 215.278 246.787 213.811 247.4C212.371 247.987 210.718 248.28 208.851 248.28ZM224.36 248V226.64H240.76V230.88H228.2L229.36 229.76V248H224.36ZM244.399 248V226.64H249.399V240.72L261.199 226.64H265.759V248H260.759V233.92L248.999 248H244.399ZM282.205 248.28C279.965 248.28 277.965 247.813 276.205 246.88C274.472 245.92 273.112 244.613 272.125 242.96C271.138 241.307 270.645 239.427 270.645 237.32C270.645 235.187 271.138 233.307 272.125 231.68C273.112 230.027 274.472 228.733 276.205 227.8C277.965 226.867 279.965 226.4 282.205 226.4C284.285 226.4 286.112 226.827 287.685 227.68C289.285 228.507 290.498 229.733 291.325 231.36L287.485 233.6C286.845 232.587 286.058 231.84 285.125 231.36C284.218 230.88 283.232 230.64 282.165 230.64C280.938 230.64 279.832 230.907 278.845 231.44C277.858 231.973 277.085 232.747 276.525 233.76C275.965 234.747 275.685 235.933 275.685 237.32C275.685 238.707 275.965 239.907 276.525 240.92C277.085 241.907 277.858 242.667 278.845 243.2C279.832 243.733 280.938 244 282.165 244C283.232 244 284.218 243.76 285.125 243.28C286.058 242.8 286.845 242.053 287.485 241.04L291.325 243.28C290.498 244.88 289.285 246.12 287.685 247C286.112 247.853 284.285 248.28 282.205 248.28ZM300.011 248V229.68L301.171 230.88H292.491V226.64H312.491V230.88H303.851L305.011 229.68V248H300.011ZM327.958 248.28C326.224 248.28 324.638 247.88 323.198 247.08C321.784 246.28 320.651 245.08 319.798 243.48C318.971 241.853 318.558 239.8 318.558 237.32C318.558 234.813 318.958 232.76 319.758 231.16C320.584 229.56 321.704 228.373 323.118 227.6C324.531 226.8 326.144 226.4 327.958 226.4C330.064 226.4 331.918 226.853 333.518 227.76C335.144 228.667 336.424 229.933 337.358 231.56C338.318 233.187 338.798 235.107 338.798 237.32C338.798 239.533 338.318 241.467 337.358 243.12C336.424 244.747 335.144 246.013 333.518 246.92C331.918 247.827 330.064 248.28 327.958 248.28ZM316.118 255.76V226.64H320.878V231.68L320.718 237.36L321.118 243.04V255.76H316.118ZM327.398 244C328.598 244 329.664 243.733 330.598 243.2C331.558 242.667 332.318 241.893 332.878 240.88C333.438 239.867 333.718 238.68 333.718 237.32C333.718 235.933 333.438 234.747 332.878 233.76C332.318 232.747 331.558 231.973 330.598 231.44C329.664 230.907 328.598 230.64 327.398 230.64C326.198 230.64 325.118 230.907 324.158 231.44C323.198 231.973 322.438 232.747 321.878 233.76C321.318 234.747 321.038 235.933 321.038 237.32C321.038 238.68 321.318 239.867 321.878 240.88C322.438 241.893 323.198 242.667 324.158 243.2C325.118 243.733 326.198 244 327.398 244ZM356.461 248V243.68L356.181 242.76V235.2C356.181 233.733 355.741 232.6 354.861 231.8C353.981 230.973 352.647 230.56 350.861 230.56C349.661 230.56 348.474 230.747 347.301 231.12C346.154 231.493 345.181 232.013 344.381 232.68L342.421 229.04C343.567 228.16 344.927 227.507 346.501 227.08C348.101 226.627 349.754 226.4 351.461 226.4C354.554 226.4 356.941 227.147 358.621 228.64C360.327 230.107 361.181 232.387 361.181 235.48V248H356.461ZM349.741 248.28C348.141 248.28 346.741 248.013 345.541 247.48C344.341 246.92 343.407 246.16 342.741 245.2C342.101 244.213 341.781 243.107 341.781 241.88C341.781 240.68 342.061 239.6 342.621 238.64C343.207 237.68 344.154 236.92 345.461 236.36C346.767 235.8 348.501 235.52 350.661 235.52H356.861V238.84H351.021C349.314 238.84 348.167 239.12 347.581 239.68C346.994 240.213 346.701 240.88 346.701 241.68C346.701 242.587 347.061 243.307 347.781 243.84C348.501 244.373 349.501 244.64 350.781 244.64C352.007 244.64 353.101 244.36 354.061 243.8C355.047 243.24 355.754 242.413 356.181 241.32L357.021 244.32C356.541 245.573 355.674 246.547 354.421 247.24C353.194 247.933 351.634 248.28 349.741 248.28ZM367.368 248V226.64H372.368V243.76H382.568V226.64H387.568V248H367.368ZM386.128 252.76V247.88L387.288 248H382.568V243.76H390.808V252.76H386.128ZM395.258 248V226.64H400.258V240.72L412.058 226.64H416.618V248H411.618V233.92L399.858 248H395.258ZM436.904 248V240.72L437.624 241.56H431.224C428.291 241.56 425.984 240.947 424.304 239.72C422.651 238.467 421.824 236.667 421.824 234.32C421.824 231.813 422.704 229.907 424.464 228.6C426.251 227.293 428.624 226.64 431.584 226.64H441.384V248H436.904ZM421.544 248L427.304 239.84H432.424L426.904 248H421.544ZM436.904 239.12V229.52L437.624 230.84H431.744C430.198 230.84 428.998 231.133 428.144 231.72C427.318 232.28 426.904 233.2 426.904 234.48C426.904 236.88 428.464 238.08 431.584 238.08H437.624L436.904 239.12Z" fill="white"/>
<path d="M171.249 312V284H183.769C186.916 284 189.369 284.627 191.129 285.88C192.889 287.107 193.769 288.88 193.769 291.2C193.769 293.493 192.929 295.267 191.249 296.52C189.569 297.747 187.356 298.36 184.609 298.36L185.329 296.92C188.449 296.92 190.862 297.547 192.569 298.8C194.276 300.053 195.129 301.867 195.129 304.24C195.129 306.667 194.236 308.573 192.449 309.96C190.662 311.32 188.022 312 184.529 312H171.249ZM176.369 308H184.369C186.182 308 187.556 307.667 188.489 307C189.422 306.307 189.889 305.253 189.889 303.84C189.889 302.427 189.422 301.4 188.489 300.76C187.556 300.093 186.182 299.76 184.369 299.76H176.369V308ZM176.369 295.96H183.329C185.009 295.96 186.289 295.627 187.169 294.96C188.049 294.267 188.489 293.28 188.489 292C188.489 290.667 188.049 289.667 187.169 289C186.289 288.333 185.009 288 183.329 288H176.369V295.96ZM210.013 312.28C207.826 312.28 205.879 311.813 204.173 310.88C202.466 309.92 201.119 308.613 200.133 306.96C199.146 305.307 198.653 303.427 198.653 301.32C198.653 299.187 199.146 297.307 200.133 295.68C201.119 294.027 202.466 292.733 204.173 291.8C205.879 290.867 207.826 290.4 210.013 290.4C212.226 290.4 214.186 290.867 215.893 291.8C217.626 292.733 218.973 294.013 219.933 295.64C220.919 297.267 221.413 299.16 221.413 301.32C221.413 303.427 220.919 305.307 219.933 306.96C218.973 308.613 217.626 309.92 215.893 310.88C214.186 311.813 212.226 312.28 210.013 312.28ZM210.013 308C211.239 308 212.333 307.733 213.293 307.2C214.253 306.667 214.999 305.893 215.533 304.88C216.093 303.867 216.373 302.68 216.373 301.32C216.373 299.933 216.093 298.747 215.533 297.76C214.999 296.747 214.253 295.973 213.293 295.44C212.333 294.907 211.253 294.64 210.053 294.64C208.826 294.64 207.733 294.907 206.773 295.44C205.839 295.973 205.093 296.747 204.533 297.76C203.973 298.747 203.693 299.933 203.693 301.32C203.693 302.68 203.973 303.867 204.533 304.88C205.093 305.893 205.839 306.667 206.773 307.2C207.733 307.733 208.813 308 210.013 308ZM226.352 312V290.64H231.352V304.72L243.152 290.64H247.712V312H242.712V297.92L230.952 312H226.352ZM236.712 288.12C234.579 288.12 232.939 287.627 231.792 286.64C230.646 285.627 230.059 284.16 230.032 282.24H233.352C233.379 283.2 233.672 283.96 234.232 284.52C234.819 285.08 235.632 285.36 236.672 285.36C237.686 285.36 238.486 285.08 239.072 284.52C239.686 283.96 240.006 283.2 240.032 282.24H243.432C243.406 284.16 242.806 285.627 241.632 286.64C240.486 287.627 238.846 288.12 236.712 288.12ZM258.878 312V293.68L260.038 294.88H251.358V290.64H271.358V294.88H262.718L263.878 293.68V312H258.878ZM274.985 312V290.64H279.985V304.72L291.785 290.64H296.345V312H291.345V297.92L279.585 312H274.985Z" fill="white"/>
<path d="M1351.48 154V120.4H1357.62V144.256L1375.67 120.4H1381.48V154H1375.33V130.192L1357.29 154H1351.48ZM1390.23 154V128.368H1396.23V138.784H1409.14V128.368H1415.14V154H1409.14V143.872H1396.23V154H1390.23ZM1439.45 154.48C1439.42 154.48 1439.28 154.48 1439.02 154.48C1438.8 154.48 1438.57 154.48 1438.35 154.48C1438.16 154.48 1438.03 154.48 1437.96 154.48C1432.56 154.416 1428.36 153.248 1425.39 150.976C1422.41 148.672 1420.92 145.392 1420.92 141.136C1420.92 136.912 1422.41 133.68 1425.39 131.44C1428.36 129.2 1432.6 128.048 1438.11 127.984C1438.17 127.984 1438.3 127.984 1438.49 127.984C1438.72 127.984 1438.92 127.984 1439.12 127.984C1439.34 127.984 1439.47 127.984 1439.5 127.984C1445.04 127.984 1449.34 129.12 1452.41 131.392C1455.52 133.632 1457.07 136.88 1457.07 141.136C1457.07 145.424 1455.52 148.72 1452.41 151.024C1449.34 153.328 1445.02 154.48 1439.45 154.48ZM1439.26 149.488C1441.98 149.488 1444.22 149.184 1445.98 148.576C1447.74 147.936 1449.05 147.008 1449.92 145.792C1450.78 144.544 1451.21 142.992 1451.21 141.136C1451.21 139.312 1450.78 137.808 1449.92 136.624C1449.05 135.408 1447.74 134.512 1445.98 133.936C1444.22 133.328 1441.98 133.024 1439.26 133.024C1439.2 133.024 1439.04 133.024 1438.78 133.024C1438.56 133.024 1438.41 133.024 1438.35 133.024C1435.69 133.024 1433.52 133.344 1431.82 133.984C1430.12 134.592 1428.86 135.488 1428.03 136.672C1427.23 137.856 1426.83 139.344 1426.83 141.136C1426.83 142.96 1427.23 144.48 1428.03 145.696C1428.86 146.912 1430.12 147.84 1431.82 148.48C1433.55 149.12 1435.72 149.456 1438.35 149.488C1438.41 149.488 1438.56 149.488 1438.78 149.488C1439.04 149.488 1439.2 149.488 1439.26 149.488ZM1436.14 163.312V118.384H1441.8V163.312H1436.14ZM1474.31 154.336C1471.68 154.336 1469.35 153.776 1467.3 152.656C1465.25 151.504 1463.64 149.936 1462.45 147.952C1461.27 145.968 1460.68 143.712 1460.68 141.184C1460.68 138.624 1461.27 136.368 1462.45 134.416C1463.64 132.432 1465.25 130.88 1467.3 129.76C1469.35 128.64 1471.68 128.08 1474.31 128.08C1476.96 128.08 1479.32 128.64 1481.36 129.76C1483.44 130.88 1485.06 132.416 1486.21 134.368C1487.4 136.32 1487.99 138.592 1487.99 141.184C1487.99 143.712 1487.4 145.968 1486.21 147.952C1485.06 149.936 1483.44 151.504 1481.36 152.656C1479.32 153.776 1476.96 154.336 1474.31 154.336ZM1474.31 149.2C1475.78 149.2 1477.09 148.88 1478.24 148.24C1479.4 147.6 1480.29 146.672 1480.93 145.456C1481.6 144.24 1481.94 142.816 1481.94 141.184C1481.94 139.52 1481.6 138.096 1480.93 136.912C1480.29 135.696 1479.4 134.768 1478.24 134.128C1477.09 133.488 1475.8 133.168 1474.36 133.168C1472.88 133.168 1471.57 133.488 1470.42 134.128C1469.3 134.768 1468.4 135.696 1467.73 136.912C1467.06 138.096 1466.72 139.52 1466.72 141.184C1466.72 142.816 1467.06 144.24 1467.73 145.456C1468.4 146.672 1469.3 147.6 1470.42 148.24C1471.57 148.88 1472.87 149.2 1474.31 149.2ZM1508.12 154.336C1506.04 154.336 1504.14 153.856 1502.41 152.896C1500.71 151.936 1499.35 150.496 1498.33 148.576C1497.34 146.624 1496.84 144.16 1496.84 141.184C1496.84 138.176 1497.32 135.712 1498.28 133.792C1499.27 131.872 1500.62 130.448 1502.31 129.52C1504.01 128.56 1505.95 128.08 1508.12 128.08C1510.65 128.08 1512.87 128.624 1514.79 129.712C1516.75 130.8 1518.28 132.32 1519.4 134.272C1520.55 136.224 1521.13 138.528 1521.13 141.184C1521.13 143.84 1520.55 146.16 1519.4 148.144C1518.28 150.096 1516.75 151.616 1514.79 152.704C1512.87 153.792 1510.65 154.336 1508.12 154.336ZM1493.91 163.312V128.368H1499.63V134.416L1499.43 141.232L1499.91 148.048V163.312H1493.91ZM1507.45 149.2C1508.89 149.2 1510.17 148.88 1511.29 148.24C1512.44 147.6 1513.35 146.672 1514.03 145.456C1514.7 144.24 1515.03 142.816 1515.03 141.184C1515.03 139.52 1514.7 138.096 1514.03 136.912C1513.35 135.696 1512.44 134.768 1511.29 134.128C1510.17 133.488 1508.89 133.168 1507.45 133.168C1506.01 133.168 1504.71 133.488 1503.56 134.128C1502.41 134.768 1501.5 135.696 1500.83 136.912C1500.15 138.096 1499.82 139.52 1499.82 141.184C1499.82 142.816 1500.15 144.24 1500.83 145.456C1501.5 146.672 1502.41 147.6 1503.56 148.24C1504.71 148.88 1506.01 149.2 1507.45 149.2ZM1527.1 154V128.368H1533.39L1543.71 146.56H1541.21L1552.06 128.368H1557.68L1557.73 154H1552.3V134.8L1553.26 135.424L1543.66 151.312H1541.07L1531.42 134.992L1532.57 134.704V154H1527.1ZM1581.33 154V148.816L1580.99 147.712V138.64C1580.99 136.88 1580.46 135.52 1579.41 134.56C1578.35 133.568 1576.75 133.072 1574.61 133.072C1573.17 133.072 1571.74 133.296 1570.33 133.744C1568.96 134.192 1567.79 134.816 1566.83 135.616L1564.48 131.248C1565.85 130.192 1567.49 129.408 1569.37 128.896C1571.29 128.352 1573.28 128.08 1575.33 128.08C1579.04 128.08 1581.9 128.976 1583.92 130.768C1585.97 132.528 1586.99 135.264 1586.99 138.976V154H1581.33ZM1573.26 154.336C1571.34 154.336 1569.66 154.016 1568.22 153.376C1566.78 152.704 1565.66 151.792 1564.86 150.64C1564.09 149.456 1563.71 148.128 1563.71 146.656C1563.71 145.216 1564.05 143.92 1564.72 142.768C1565.42 141.616 1566.56 140.704 1568.13 140.032C1569.69 139.36 1571.77 139.024 1574.37 139.024H1581.81V143.008H1574.8C1572.75 143.008 1571.37 143.344 1570.67 144.016C1569.97 144.656 1569.61 145.456 1569.61 146.416C1569.61 147.504 1570.05 148.368 1570.91 149.008C1571.77 149.648 1572.97 149.968 1574.51 149.968C1575.98 149.968 1577.29 149.632 1578.45 148.96C1579.63 148.288 1580.48 147.296 1580.99 145.984L1582 149.584C1581.42 151.088 1580.38 152.256 1578.88 153.088C1577.41 153.92 1575.53 154.336 1573.26 154.336ZM1594.41 154V128.368H1600.41V148.912H1612.65V128.368H1618.65V154H1594.41ZM1616.93 159.712V153.856L1618.32 154H1612.65V148.912H1622.54V159.712H1616.93ZM1627.88 154V128.368H1633.88V145.264L1648.04 128.368H1653.52V154H1647.52V137.104L1633.4 154H1627.88ZM1677.86 154V145.264L1678.72 146.272H1671.04C1667.52 146.272 1664.75 145.536 1662.74 144.064C1660.75 142.56 1659.76 140.4 1659.76 137.584C1659.76 134.576 1660.82 132.288 1662.93 130.72C1665.07 129.152 1667.92 128.368 1671.47 128.368H1683.23V154H1677.86ZM1659.43 154L1666.34 144.208H1672.48L1665.86 154H1659.43ZM1677.86 143.344V131.824L1678.72 133.408H1671.67C1669.81 133.408 1668.37 133.76 1667.35 134.464C1666.35 135.136 1665.86 136.24 1665.86 137.776C1665.86 140.656 1667.73 142.096 1671.47 142.096H1678.72L1677.86 143.344Z" fill="white"/>
<path d="M1350 189H1760" stroke="white" stroke-width="3" stroke-linecap="round"/>
<path d="M1374.04 245.6V224.4H1363.08L1362.88 229.36C1362.8 231.227 1362.68 233 1362.52 234.68C1362.39 236.333 1362.16 237.84 1361.84 239.2C1361.55 240.56 1361.14 241.693 1360.6 242.6C1360.07 243.507 1359.42 244.107 1358.64 244.4L1353.04 243.6C1354.06 243.653 1354.88 243.307 1355.52 242.56C1356.19 241.813 1356.71 240.773 1357.08 239.44C1357.46 238.107 1357.74 236.547 1357.92 234.76C1358.11 232.947 1358.24 230.987 1358.32 228.88L1358.64 220H1379.16V245.6H1374.04ZM1352.08 253.96L1352.12 243.6H1383.2V253.96H1378.4V248H1356.92V253.96H1352.08ZM1384.42 247.96L1384.66 243.76C1384.85 243.787 1385.02 243.813 1385.18 243.84C1385.34 243.867 1385.49 243.88 1385.62 243.88C1386.45 243.88 1387.09 243.627 1387.54 243.12C1387.99 242.613 1388.33 241.933 1388.54 241.08C1388.78 240.2 1388.94 239.227 1389.02 238.16C1389.13 237.067 1389.21 235.973 1389.26 234.88L1389.62 226.64H1406.9V248H1401.9V229.52L1403.06 230.88H1392.9L1393.98 229.48L1393.7 235.12C1393.62 237.013 1393.46 238.773 1393.22 240.4C1393.01 242 1392.66 243.4 1392.18 244.6C1391.73 245.8 1391.09 246.733 1390.26 247.4C1389.46 248.067 1388.43 248.4 1387.18 248.4C1386.78 248.4 1386.34 248.36 1385.86 248.28C1385.41 248.2 1384.93 248.093 1384.42 247.96ZM1427.19 248V240.72L1427.91 241.56H1421.51C1418.58 241.56 1416.27 240.947 1414.59 239.72C1412.94 238.467 1412.11 236.667 1412.11 234.32C1412.11 231.813 1412.99 229.907 1414.75 228.6C1416.54 227.293 1418.91 226.64 1421.87 226.64H1431.67V248H1427.19ZM1411.83 248L1417.59 239.84H1422.71L1417.19 248H1411.83ZM1427.19 239.12V229.52L1427.91 230.84H1422.03C1420.49 230.84 1419.29 231.133 1418.43 231.72C1417.61 232.28 1417.19 233.2 1417.19 234.48C1417.19 236.88 1418.75 238.08 1421.87 238.08H1427.91L1427.19 239.12ZM1462.41 248V243.68L1462.13 242.76V235.2C1462.13 233.733 1461.69 232.6 1460.81 231.8C1459.93 230.973 1458.6 230.56 1456.81 230.56C1455.61 230.56 1454.43 230.747 1453.25 231.12C1452.11 231.493 1451.13 232.013 1450.33 232.68L1448.37 229.04C1449.52 228.16 1450.88 227.507 1452.45 227.08C1454.05 226.627 1455.71 226.4 1457.41 226.4C1460.51 226.4 1462.89 227.147 1464.57 228.64C1466.28 230.107 1467.13 232.387 1467.13 235.48V248H1462.41ZM1455.69 248.28C1454.09 248.28 1452.69 248.013 1451.49 247.48C1450.29 246.92 1449.36 246.16 1448.69 245.2C1448.05 244.213 1447.73 243.107 1447.73 241.88C1447.73 240.68 1448.01 239.6 1448.57 238.64C1449.16 237.68 1450.11 236.92 1451.41 236.36C1452.72 235.8 1454.45 235.52 1456.61 235.52H1462.81V238.84H1456.97C1455.27 238.84 1454.12 239.12 1453.53 239.68C1452.95 240.213 1452.65 240.88 1452.65 241.68C1452.65 242.587 1453.01 243.307 1453.73 243.84C1454.45 244.373 1455.45 244.64 1456.73 244.64C1457.96 244.64 1459.05 244.36 1460.01 243.8C1461 243.24 1461.71 242.413 1462.13 241.32L1462.97 244.32C1462.49 245.573 1461.63 246.547 1460.37 247.24C1459.15 247.933 1457.59 248.28 1455.69 248.28ZM1473.32 248V226.64H1483.76C1486.35 226.64 1488.37 227.12 1489.84 228.08C1491.33 229.04 1492.08 230.4 1492.08 232.16C1492.08 233.893 1491.39 235.253 1490 236.24C1488.61 237.2 1486.77 237.68 1484.48 237.68L1485.08 236.44C1487.67 236.44 1489.59 236.92 1490.84 237.88C1492.12 238.813 1492.76 240.187 1492.76 242C1492.76 243.893 1492.05 245.373 1490.64 246.44C1489.23 247.48 1487.08 248 1484.2 248H1473.32ZM1478.08 244.36H1483.8C1485.16 244.36 1486.19 244.147 1486.88 243.72C1487.57 243.267 1487.92 242.587 1487.92 241.68C1487.92 240.72 1487.6 240.013 1486.96 239.56C1486.32 239.107 1485.32 238.88 1483.96 238.88H1478.08V244.36ZM1478.08 235.56H1483.32C1484.6 235.56 1485.56 235.333 1486.2 234.88C1486.87 234.4 1487.2 233.733 1487.2 232.88C1487.2 232 1486.87 231.347 1486.2 230.92C1485.56 230.493 1484.6 230.28 1483.32 230.28H1478.08V235.56ZM1502.53 248V229.68L1503.69 230.88H1495.01V226.64H1515.01V230.88H1506.37L1507.53 229.68V248H1502.53ZM1527.22 248.28C1525.03 248.28 1523.08 247.813 1521.38 246.88C1519.67 245.92 1518.32 244.613 1517.34 242.96C1516.35 241.307 1515.86 239.427 1515.86 237.32C1515.86 235.187 1516.35 233.307 1517.34 231.68C1518.32 230.027 1519.67 228.733 1521.38 227.8C1523.08 226.867 1525.03 226.4 1527.22 226.4C1529.43 226.4 1531.39 226.867 1533.1 227.8C1534.83 228.733 1536.18 230.013 1537.14 231.64C1538.12 233.267 1538.62 235.16 1538.62 237.32C1538.62 239.427 1538.12 241.307 1537.14 242.96C1536.18 244.613 1534.83 245.92 1533.1 246.88C1531.39 247.813 1529.43 248.28 1527.22 248.28ZM1527.22 244C1528.44 244 1529.54 243.733 1530.5 243.2C1531.46 242.667 1532.2 241.893 1532.74 240.88C1533.3 239.867 1533.58 238.68 1533.58 237.32C1533.58 235.933 1533.3 234.747 1532.74 233.76C1532.2 232.747 1531.46 231.973 1530.5 231.44C1529.54 230.907 1528.46 230.64 1527.26 230.64C1526.03 230.64 1524.94 230.907 1523.98 231.44C1523.04 231.973 1522.3 232.747 1521.74 233.76C1521.18 234.747 1520.9 235.933 1520.9 237.32C1520.9 238.68 1521.18 239.867 1521.74 240.88C1522.3 241.893 1523.04 242.667 1523.98 243.2C1524.94 243.733 1526.02 244 1527.22 244ZM1555.4 248.28C1553.66 248.28 1552.08 247.88 1550.64 247.08C1549.22 246.28 1548.09 245.08 1547.24 243.48C1546.41 241.853 1546 239.8 1546 237.32C1546 234.813 1546.4 232.76 1547.2 231.16C1548.02 229.56 1549.14 228.373 1550.56 227.6C1551.97 226.8 1553.58 226.4 1555.4 226.4C1557.5 226.4 1559.36 226.853 1560.96 227.76C1562.58 228.667 1563.86 229.933 1564.8 231.56C1565.76 233.187 1566.24 235.107 1566.24 237.32C1566.24 239.533 1565.76 241.467 1564.8 243.12C1563.86 244.747 1562.58 246.013 1560.96 246.92C1559.36 247.827 1557.5 248.28 1555.4 248.28ZM1543.56 255.76V226.64H1548.32V231.68L1548.16 237.36L1548.56 243.04V255.76H1543.56ZM1554.84 244C1556.04 244 1557.1 243.733 1558.04 243.2C1559 242.667 1559.76 241.893 1560.32 240.88C1560.88 239.867 1561.16 238.68 1561.16 237.32C1561.16 235.933 1560.88 234.747 1560.32 233.76C1559.76 232.747 1559 231.973 1558.04 231.44C1557.1 230.907 1556.04 230.64 1554.84 230.64C1553.64 230.64 1552.56 230.907 1551.6 231.44C1550.64 231.973 1549.88 232.747 1549.32 233.76C1548.76 234.747 1548.48 235.933 1548.48 237.32C1548.48 238.68 1548.76 239.867 1549.32 240.88C1549.88 241.893 1550.64 242.667 1551.6 243.2C1552.56 243.733 1553.64 244 1554.84 244ZM1580.73 248.28C1578.54 248.28 1576.6 247.813 1574.89 246.88C1573.18 245.92 1571.84 244.613 1570.85 242.96C1569.86 241.307 1569.37 239.427 1569.37 237.32C1569.37 235.187 1569.86 233.307 1570.85 231.68C1571.84 230.027 1573.18 228.733 1574.89 227.8C1576.6 226.867 1578.54 226.4 1580.73 226.4C1582.94 226.4 1584.9 226.867 1586.61 227.8C1588.34 228.733 1589.69 230.013 1590.65 231.64C1591.64 233.267 1592.13 235.16 1592.13 237.32C1592.13 239.427 1591.64 241.307 1590.65 242.96C1589.69 244.613 1588.34 245.92 1586.61 246.88C1584.9 247.813 1582.94 248.28 1580.73 248.28ZM1580.73 244C1581.96 244 1583.05 243.733 1584.01 243.2C1584.97 242.667 1585.72 241.893 1586.25 240.88C1586.81 239.867 1587.09 238.68 1587.09 237.32C1587.09 235.933 1586.81 234.747 1586.25 233.76C1585.72 232.747 1584.97 231.973 1584.01 231.44C1583.05 230.907 1581.97 230.64 1580.77 230.64C1579.54 230.64 1578.45 230.907 1577.49 231.44C1576.56 231.973 1575.81 232.747 1575.25 233.76C1574.69 234.747 1574.41 235.933 1574.41 237.32C1574.41 238.68 1574.69 239.867 1575.25 240.88C1575.81 241.893 1576.56 242.667 1577.49 243.2C1578.45 243.733 1579.53 244 1580.73 244ZM1597.07 248V226.64H1607.51C1610.1 226.64 1612.12 227.12 1613.59 228.08C1615.08 229.04 1615.83 230.4 1615.83 232.16C1615.83 233.893 1615.14 235.253 1613.75 236.24C1612.36 237.2 1610.52 237.68 1608.23 237.68L1608.83 236.44C1611.42 236.44 1613.34 236.92 1614.59 237.88C1615.87 238.813 1616.51 240.187 1616.51 242C1616.51 243.893 1615.8 245.373 1614.39 246.44C1612.98 247.48 1610.83 248 1607.95 248H1597.07ZM1601.83 244.36H1607.55C1608.91 244.36 1609.94 244.147 1610.63 243.72C1611.32 243.267 1611.67 242.587 1611.67 241.68C1611.67 240.72 1611.35 240.013 1610.71 239.56C1610.07 239.107 1609.07 238.88 1607.71 238.88H1601.83V244.36ZM1601.83 235.56H1607.07C1608.35 235.56 1609.31 235.333 1609.95 234.88C1610.62 234.4 1610.95 233.733 1610.95 232.88C1610.95 232 1610.62 231.347 1609.95 230.92C1609.31 230.493 1608.35 230.28 1607.07 230.28H1601.83V235.56Z" fill="white"/>
<path d="M1371.82 309.6V288.4H1360.86L1360.66 293.36C1360.58 295.227 1360.46 297 1360.3 298.68C1360.16 300.333 1359.94 301.84 1359.62 303.2C1359.32 304.56 1358.91 305.693 1358.38 306.6C1357.84 307.507 1357.19 308.107 1356.42 308.4L1350.82 307.6C1351.83 307.653 1352.66 307.307 1353.3 306.56C1353.96 305.813 1354.48 304.773 1354.86 303.44C1355.23 302.107 1355.51 300.547 1355.7 298.76C1355.88 296.947 1356.02 294.987 1356.1 292.88L1356.42 284H1376.94V309.6H1371.82ZM1349.86 317.96L1349.9 307.6H1380.98V317.96H1376.18V312H1354.7V317.96H1349.86ZM1382.19 311.96L1382.43 307.76C1382.62 307.787 1382.79 307.813 1382.95 307.84C1383.11 307.867 1383.26 307.88 1383.39 307.88C1384.22 307.88 1384.86 307.627 1385.31 307.12C1385.77 306.613 1386.1 305.933 1386.31 305.08C1386.55 304.2 1386.71 303.227 1386.79 302.16C1386.9 301.067 1386.98 299.973 1387.03 298.88L1387.39 290.64H1404.67V312H1399.67V293.52L1400.83 294.88H1390.67L1391.75 293.48L1391.47 299.12C1391.39 301.013 1391.23 302.773 1390.99 304.4C1390.78 306 1390.43 307.4 1389.95 308.6C1389.5 309.8 1388.86 310.733 1388.03 311.4C1387.23 312.067 1386.21 312.4 1384.95 312.4C1384.55 312.4 1384.11 312.36 1383.63 312.28C1383.18 312.2 1382.7 312.093 1382.19 311.96ZM1424.97 312V304.72L1425.69 305.56H1419.29C1416.35 305.56 1414.05 304.947 1412.37 303.72C1410.71 302.467 1409.89 300.667 1409.89 298.32C1409.89 295.813 1410.77 293.907 1412.53 292.6C1414.31 291.293 1416.69 290.64 1419.65 290.64H1429.45V312H1424.97ZM1409.61 312L1415.37 303.84H1420.49L1414.97 312H1409.61ZM1424.97 303.12V293.52L1425.69 294.84H1419.81C1418.26 294.84 1417.06 295.133 1416.21 295.72C1415.38 296.28 1414.97 297.2 1414.97 298.48C1414.97 300.88 1416.53 302.08 1419.65 302.08H1425.69L1424.97 303.12ZM1462.55 312L1454.83 301.76L1458.91 299.24L1468.43 312H1462.55ZM1447.23 312V290.64H1452.23V312H1447.23ZM1450.75 303.44V299.28H1457.99V303.44H1450.75ZM1459.39 301.92L1454.71 301.36L1462.55 290.64H1467.91L1459.39 301.92ZM1480.77 312.28C1478.58 312.28 1476.64 311.813 1474.93 310.88C1473.22 309.92 1471.88 308.613 1470.89 306.96C1469.9 305.307 1469.41 303.427 1469.41 301.32C1469.41 299.187 1469.9 297.307 1470.89 295.68C1471.88 294.027 1473.22 292.733 1474.93 291.8C1476.64 290.867 1478.58 290.4 1480.77 290.4C1482.98 290.4 1484.94 290.867 1486.65 291.8C1488.38 292.733 1489.73 294.013 1490.69 295.64C1491.68 297.267 1492.17 299.16 1492.17 301.32C1492.17 303.427 1491.68 305.307 1490.69 306.96C1489.73 308.613 1488.38 309.92 1486.65 310.88C1484.94 311.813 1482.98 312.28 1480.77 312.28ZM1480.77 308C1482 308 1483.09 307.733 1484.05 307.2C1485.01 306.667 1485.76 305.893 1486.29 304.88C1486.85 303.867 1487.13 302.68 1487.13 301.32C1487.13 299.933 1486.85 298.747 1486.29 297.76C1485.76 296.747 1485.01 295.973 1484.05 295.44C1483.09 294.907 1482.01 294.64 1480.81 294.64C1479.58 294.64 1478.49 294.907 1477.53 295.44C1476.6 295.973 1475.85 296.747 1475.29 297.76C1474.73 298.747 1474.45 299.933 1474.45 301.32C1474.45 302.68 1474.73 303.867 1475.29 304.88C1475.85 305.893 1476.6 306.667 1477.53 307.2C1478.49 307.733 1479.57 308 1480.77 308ZM1497.11 312V290.64H1502.35L1510.95 305.8H1508.87L1517.91 290.64H1522.59L1522.63 312H1518.11V296L1518.91 296.52L1510.91 309.76H1508.75L1500.71 296.16L1501.67 295.92V312H1497.11ZM1529.34 312V290.64H1549.82V312H1544.86V293.72L1546.02 294.88H1533.18L1534.34 293.72V312H1529.34ZM1569.52 312V307.68L1569.24 306.76V299.2C1569.24 297.733 1568.8 296.6 1567.92 295.8C1567.04 294.973 1565.71 294.56 1563.92 294.56C1562.72 294.56 1561.54 294.747 1560.36 295.12C1559.22 295.493 1558.24 296.013 1557.44 296.68L1555.48 293.04C1556.63 292.16 1557.99 291.507 1559.56 291.08C1561.16 290.627 1562.82 290.4 1564.52 290.4C1567.62 290.4 1570 291.147 1571.68 292.64C1573.39 294.107 1574.24 296.387 1574.24 299.48V312H1569.52ZM1562.8 312.28C1561.2 312.28 1559.8 312.013 1558.6 311.48C1557.4 310.92 1556.47 310.16 1555.8 309.2C1555.16 308.213 1554.84 307.107 1554.84 305.88C1554.84 304.68 1555.12 303.6 1555.68 302.64C1556.27 301.68 1557.22 300.92 1558.52 300.36C1559.83 299.8 1561.56 299.52 1563.72 299.52H1569.92V302.84H1564.08C1562.38 302.84 1561.23 303.12 1560.64 303.68C1560.06 304.213 1559.76 304.88 1559.76 305.68C1559.76 306.587 1560.12 307.307 1560.84 307.84C1561.56 308.373 1562.56 308.64 1563.84 308.64C1565.07 308.64 1566.16 308.36 1567.12 307.8C1568.11 307.24 1568.82 306.413 1569.24 305.32L1570.08 308.32C1569.6 309.573 1568.74 310.547 1567.48 311.24C1566.26 311.933 1564.7 312.28 1562.8 312.28ZM1580.43 312V290.64H1585.43V299.32H1596.19V290.64H1601.19V312H1596.19V303.56H1585.43V312H1580.43ZM1607.89 312V290.64H1612.89V304.72L1624.69 290.64H1629.25V312H1624.25V297.92L1612.49 312H1607.89ZM1635.98 312V290.64H1640.98V304.72L1652.78 290.64H1657.34V312H1652.34V297.92L1640.58 312H1635.98ZM1646.34 288.12C1644.2 288.12 1642.56 287.627 1641.42 286.64C1640.27 285.627 1639.68 284.16 1639.66 282.24H1642.98C1643 283.2 1643.3 283.96 1643.86 284.52C1644.44 285.08 1645.26 285.36 1646.3 285.36C1647.31 285.36 1648.11 285.08 1648.7 284.52C1649.31 283.96 1649.63 283.2 1649.66 282.24H1653.06C1653.03 284.16 1652.43 285.627 1651.26 286.64C1650.11 287.627 1648.47 288.12 1646.34 288.12Z" fill="white"/>
<path d="M1350.78 376V348H1375.54V376H1370.42V351.12L1371.62 352.4H1354.7L1355.9 351.12V376H1350.78ZM1392.4 376.28C1390.21 376.28 1388.26 375.813 1386.56 374.88C1384.85 373.92 1383.5 372.613 1382.52 370.96C1381.53 369.307 1381.04 367.427 1381.04 365.32C1381.04 363.187 1381.53 361.307 1382.52 359.68C1383.5 358.027 1384.85 356.733 1386.56 355.8C1388.26 354.867 1390.21 354.4 1392.4 354.4C1394.61 354.4 1396.57 354.867 1398.28 355.8C1400.01 356.733 1401.36 358.013 1402.32 359.64C1403.3 361.267 1403.8 363.16 1403.8 365.32C1403.8 367.427 1403.3 369.307 1402.32 370.96C1401.36 372.613 1400.01 373.92 1398.28 374.88C1396.57 375.813 1394.61 376.28 1392.4 376.28ZM1392.4 372C1393.62 372 1394.72 371.733 1395.68 371.2C1396.64 370.667 1397.38 369.893 1397.92 368.88C1398.48 367.867 1398.76 366.68 1398.76 365.32C1398.76 363.933 1398.48 362.747 1397.92 361.76C1397.38 360.747 1396.64 359.973 1395.68 359.44C1394.72 358.907 1393.64 358.64 1392.44 358.64C1391.21 358.64 1390.12 358.907 1389.16 359.44C1388.22 359.973 1387.48 360.747 1386.92 361.76C1386.36 362.747 1386.08 363.933 1386.08 365.32C1386.08 366.68 1386.36 367.867 1386.92 368.88C1387.48 369.893 1388.22 370.667 1389.16 371.2C1390.12 371.733 1391.2 372 1392.4 372ZM1419.79 376V354.64H1440.27V376H1435.31V357.72L1436.47 358.88H1423.63L1424.79 357.72V376H1419.79ZM1456.54 376.28C1454.35 376.28 1452.4 375.813 1450.7 374.88C1448.99 373.92 1447.64 372.613 1446.66 370.96C1445.67 369.307 1445.18 367.427 1445.18 365.32C1445.18 363.187 1445.67 361.307 1446.66 359.68C1447.64 358.027 1448.99 356.733 1450.7 355.8C1452.4 354.867 1454.35 354.4 1456.54 354.4C1458.75 354.4 1460.71 354.867 1462.42 355.8C1464.15 356.733 1465.5 358.013 1466.46 359.64C1467.44 361.267 1467.94 363.16 1467.94 365.32C1467.94 367.427 1467.44 369.307 1466.46 370.96C1465.5 372.613 1464.15 373.92 1462.42 374.88C1460.71 375.813 1458.75 376.28 1456.54 376.28ZM1456.54 372C1457.76 372 1458.86 371.733 1459.82 371.2C1460.78 370.667 1461.52 369.893 1462.06 368.88C1462.62 367.867 1462.9 366.68 1462.9 365.32C1462.9 363.933 1462.62 362.747 1462.06 361.76C1461.52 360.747 1460.78 359.973 1459.82 359.44C1458.86 358.907 1457.78 358.64 1456.58 358.64C1455.35 358.64 1454.26 358.907 1453.3 359.44C1452.36 359.973 1451.62 360.747 1451.06 361.76C1450.5 362.747 1450.22 363.933 1450.22 365.32C1450.22 366.68 1450.5 367.867 1451.06 368.88C1451.62 369.893 1452.36 370.667 1453.3 371.2C1454.26 371.733 1455.34 372 1456.54 372ZM1472.88 376V354.64H1483.32C1485.9 354.64 1487.93 355.12 1489.4 356.08C1490.89 357.04 1491.64 358.4 1491.64 360.16C1491.64 361.893 1490.94 363.253 1489.56 364.24C1488.17 365.2 1486.33 365.68 1484.04 365.68L1484.64 364.44C1487.22 364.44 1489.14 364.92 1490.4 365.88C1491.68 366.813 1492.32 368.187 1492.32 370C1492.32 371.893 1491.61 373.373 1490.2 374.44C1488.78 375.48 1486.64 376 1483.76 376H1472.88ZM1477.64 372.36H1483.36C1484.72 372.36 1485.74 372.147 1486.44 371.72C1487.13 371.267 1487.48 370.587 1487.48 369.68C1487.48 368.72 1487.16 368.013 1486.52 367.56C1485.88 367.107 1484.88 366.88 1483.52 366.88H1477.64V372.36ZM1477.64 363.56H1482.88C1484.16 363.56 1485.12 363.333 1485.76 362.88C1486.42 362.4 1486.76 361.733 1486.76 360.88C1486.76 360 1486.42 359.347 1485.76 358.92C1485.12 358.493 1484.16 358.28 1482.88 358.28H1477.64V363.56ZM1507.16 376.28C1504.97 376.28 1503.03 375.813 1501.32 374.88C1499.61 373.92 1498.27 372.613 1497.28 370.96C1496.29 369.307 1495.8 367.427 1495.8 365.32C1495.8 363.187 1496.29 361.307 1497.28 359.68C1498.27 358.027 1499.61 356.733 1501.32 355.8C1503.03 354.867 1504.97 354.4 1507.16 354.4C1509.37 354.4 1511.33 354.867 1513.04 355.8C1514.77 356.733 1516.12 358.013 1517.08 359.64C1518.07 361.267 1518.56 363.16 1518.56 365.32C1518.56 367.427 1518.07 369.307 1517.08 370.96C1516.12 372.613 1514.77 373.92 1513.04 374.88C1511.33 375.813 1509.37 376.28 1507.16 376.28ZM1507.16 372C1508.39 372 1509.48 371.733 1510.44 371.2C1511.4 370.667 1512.15 369.893 1512.68 368.88C1513.24 367.867 1513.52 366.68 1513.52 365.32C1513.52 363.933 1513.24 362.747 1512.68 361.76C1512.15 360.747 1511.4 359.973 1510.44 359.44C1509.48 358.907 1508.4 358.64 1507.2 358.64C1505.97 358.64 1504.88 358.907 1503.92 359.44C1502.99 359.973 1502.24 360.747 1501.68 361.76C1501.12 362.747 1500.84 363.933 1500.84 365.32C1500.84 366.68 1501.12 367.867 1501.68 368.88C1502.24 369.893 1502.99 370.667 1503.92 371.2C1504.88 371.733 1505.96 372 1507.16 372ZM1537.91 373.68V358.88H1529.71L1529.59 362.32C1529.53 363.547 1529.45 364.733 1529.35 365.88C1529.24 367 1529.07 368.04 1528.83 369C1528.59 369.933 1528.24 370.707 1527.79 371.32C1527.33 371.933 1526.73 372.333 1525.99 372.52L1521.03 371.76C1521.83 371.76 1522.47 371.507 1522.95 371C1523.45 370.467 1523.84 369.747 1524.11 368.84C1524.4 367.907 1524.61 366.853 1524.75 365.68C1524.88 364.48 1524.97 363.24 1525.03 361.96L1525.31 354.64H1542.91V373.68H1537.91ZM1520.27 380.76V371.76H1546.07V380.76H1541.39V376H1524.91V380.76H1520.27ZM1552.45 384.04C1551.41 384.04 1550.37 383.867 1549.33 383.52C1548.29 383.173 1547.43 382.693 1546.73 382.08L1548.73 378.4C1549.24 378.853 1549.81 379.213 1550.45 379.48C1551.09 379.747 1551.75 379.88 1552.41 379.88C1553.32 379.88 1554.05 379.653 1554.61 379.2C1555.17 378.747 1555.69 377.987 1556.17 376.92L1557.41 374.12L1557.81 373.52L1565.89 354.64H1570.69L1560.69 377.72C1560.03 379.32 1559.28 380.587 1558.45 381.52C1557.65 382.453 1556.75 383.107 1555.73 383.48C1554.75 383.853 1553.65 384.04 1552.45 384.04ZM1556.85 376.76L1547.21 354.64H1552.41L1560.25 373.08L1556.85 376.76ZM1597.06 376.28C1595.33 376.28 1593.74 375.88 1592.3 375.08C1590.89 374.28 1589.75 373.08 1588.9 371.48C1588.07 369.853 1587.66 367.8 1587.66 365.32C1587.66 362.813 1588.06 360.76 1588.86 359.16C1589.69 357.56 1590.81 356.373 1592.22 355.6C1593.63 354.8 1595.25 354.4 1597.06 354.4C1599.17 354.4 1601.02 354.853 1602.62 355.76C1604.25 356.667 1605.53 357.933 1606.46 359.56C1607.42 361.187 1607.9 363.107 1607.9 365.32C1607.9 367.533 1607.42 369.467 1606.46 371.12C1605.53 372.747 1604.25 374.013 1602.62 374.92C1601.02 375.827 1599.17 376.28 1597.06 376.28ZM1585.22 383.76V354.64H1589.98V359.68L1589.82 365.36L1590.22 371.04V383.76H1585.22ZM1596.5 372C1597.7 372 1598.77 371.733 1599.7 371.2C1600.66 370.667 1601.42 369.893 1601.98 368.88C1602.54 367.867 1602.82 366.68 1602.82 365.32C1602.82 363.933 1602.54 362.747 1601.98 361.76C1601.42 360.747 1600.66 359.973 1599.7 359.44C1598.77 358.907 1597.7 358.64 1596.5 358.64C1595.3 358.64 1594.22 358.907 1593.26 359.44C1592.3 359.973 1591.54 360.747 1590.98 361.76C1590.42 362.747 1590.14 363.933 1590.14 365.32C1590.14 366.68 1590.42 367.867 1590.98 368.88C1591.54 369.893 1592.3 370.667 1593.26 371.2C1594.22 371.733 1595.3 372 1596.5 372ZM1622.84 376.28C1620.46 376.28 1618.38 375.813 1616.6 374.88C1614.84 373.92 1613.46 372.613 1612.48 370.96C1611.52 369.307 1611.04 367.427 1611.04 365.32C1611.04 363.187 1611.5 361.307 1612.44 359.68C1613.4 358.027 1614.7 356.733 1616.36 355.8C1618.04 354.867 1619.94 354.4 1622.08 354.4C1624.16 354.4 1626.01 354.853 1627.64 355.76C1629.26 356.667 1630.54 357.947 1631.48 359.6C1632.41 361.253 1632.88 363.2 1632.88 365.44C1632.88 365.653 1632.86 365.893 1632.84 366.16C1632.84 366.427 1632.82 366.68 1632.8 366.92H1615V363.6H1630.16L1628.2 364.64C1628.22 363.413 1627.97 362.333 1627.44 361.4C1626.9 360.467 1626.17 359.733 1625.24 359.2C1624.33 358.667 1623.28 358.4 1622.08 358.4C1620.85 358.4 1619.77 358.667 1618.84 359.2C1617.93 359.733 1617.21 360.48 1616.68 361.44C1616.17 362.373 1615.92 363.48 1615.92 364.76V365.56C1615.92 366.84 1616.21 367.973 1616.8 368.96C1617.38 369.947 1618.21 370.707 1619.28 371.24C1620.34 371.773 1621.57 372.04 1622.96 372.04C1624.16 372.04 1625.24 371.853 1626.2 371.48C1627.16 371.107 1628.01 370.52 1628.76 369.72L1631.44 372.8C1630.48 373.92 1629.26 374.787 1627.8 375.4C1626.36 375.987 1624.7 376.28 1622.84 376.28ZM1653.66 376L1645.94 365.76L1650.02 363.24L1659.54 376H1653.66ZM1638.34 376V354.64H1643.34V376H1638.34ZM1641.86 367.44V363.28H1649.1V367.44H1641.86ZM1650.5 365.92L1645.82 365.36L1653.66 354.64H1659.02L1650.5 365.92ZM1659.95 375.96L1660.19 371.76C1660.38 371.787 1660.55 371.813 1660.71 371.84C1660.87 371.867 1661.02 371.88 1661.15 371.88C1661.98 371.88 1662.62 371.627 1663.07 371.12C1663.52 370.613 1663.86 369.933 1664.07 369.08C1664.31 368.2 1664.47 367.227 1664.55 366.16C1664.66 365.067 1664.74 363.973 1664.79 362.88L1665.15 354.64H1682.43V376H1677.43V357.52L1678.59 358.88H1668.43L1669.51 357.48L1669.23 363.12C1669.15 365.013 1668.99 366.773 1668.75 368.4C1668.54 370 1668.19 371.4 1667.71 372.6C1667.26 373.8 1666.62 374.733 1665.79 375.4C1664.99 376.067 1663.96 376.4 1662.71 376.4C1662.31 376.4 1661.87 376.36 1661.39 376.28C1660.94 376.2 1660.46 376.093 1659.95 375.96ZM1702.12 376V371.68L1701.84 370.76V363.2C1701.84 361.733 1701.4 360.6 1700.52 359.8C1699.64 358.973 1698.31 358.56 1696.52 358.56C1695.32 358.56 1694.14 358.747 1692.96 359.12C1691.82 359.493 1690.84 360.013 1690.04 360.68L1688.08 357.04C1689.23 356.16 1690.59 355.507 1692.16 355.08C1693.76 354.627 1695.42 354.4 1697.12 354.4C1700.22 354.4 1702.6 355.147 1704.28 356.64C1705.99 358.107 1706.84 360.387 1706.84 363.48V376H1702.12ZM1695.4 376.28C1693.8 376.28 1692.4 376.013 1691.2 375.48C1690 374.92 1689.07 374.16 1688.4 373.2C1687.76 372.213 1687.44 371.107 1687.44 369.88C1687.44 368.68 1687.72 367.6 1688.28 366.64C1688.87 365.68 1689.82 364.92 1691.12 364.36C1692.43 363.8 1694.16 363.52 1696.32 363.52H1702.52V366.84H1696.68C1694.98 366.84 1693.83 367.12 1693.24 367.68C1692.66 368.213 1692.36 368.88 1692.36 369.68C1692.36 370.587 1692.72 371.307 1693.44 371.84C1694.16 372.373 1695.16 372.64 1696.44 372.64C1697.67 372.64 1698.76 372.36 1699.72 371.8C1700.71 371.24 1701.42 370.413 1701.84 369.32L1702.68 372.32C1702.2 373.573 1701.34 374.547 1700.08 375.24C1698.86 375.933 1697.3 376.28 1695.4 376.28ZM1713.03 376V354.64H1718.27L1726.87 369.8H1724.79L1733.83 354.64H1738.51L1738.55 376H1734.03V360L1734.83 360.52L1726.83 373.76H1724.67L1716.63 360.16L1717.59 359.92V376H1713.03ZM1766.82 376V354.64H1771.82V376H1766.82ZM1755.66 361.68C1758.41 361.68 1760.49 362.293 1761.9 363.52C1763.34 364.747 1764.06 366.48 1764.06 368.72C1764.06 371.04 1763.26 372.853 1761.66 374.16C1760.09 375.44 1757.85 376.067 1754.94 376.04L1745.26 376V354.64H1750.26V361.64L1755.66 361.68ZM1754.5 372.36C1755.97 372.387 1757.09 372.08 1757.86 371.44C1758.63 370.8 1759.02 369.867 1759.02 368.64C1759.02 367.413 1758.63 366.533 1757.86 366C1757.11 365.44 1755.99 365.147 1754.5 365.12L1750.26 365.08V372.32L1754.5 372.36Z" fill="white"/>
<path d="M1363.25 440.4C1361.11 440.4 1359.13 440.053 1357.29 439.36C1355.47 438.64 1353.89 437.64 1352.53 436.36C1351.19 435.053 1350.15 433.52 1349.41 431.76C1348.66 430 1348.29 428.08 1348.29 426C1348.29 423.92 1348.66 422 1349.41 420.24C1350.15 418.48 1351.21 416.96 1352.57 415.68C1353.93 414.373 1355.51 413.373 1357.33 412.68C1359.14 411.96 1361.13 411.6 1363.29 411.6C1365.58 411.6 1367.67 412 1369.57 412.8C1371.46 413.573 1373.06 414.733 1374.37 416.28L1371.01 419.44C1369.99 418.347 1368.86 417.533 1367.61 417C1366.35 416.44 1364.99 416.16 1363.53 416.16C1362.06 416.16 1360.71 416.4 1359.49 416.88C1358.29 417.36 1357.23 418.04 1356.33 418.92C1355.45 419.8 1354.75 420.84 1354.25 422.04C1353.77 423.24 1353.53 424.56 1353.53 426C1353.53 427.44 1353.77 428.76 1354.25 429.96C1354.75 431.16 1355.45 432.2 1356.33 433.08C1357.23 433.96 1358.29 434.64 1359.49 435.12C1360.71 435.6 1362.06 435.84 1363.53 435.84C1364.99 435.84 1366.35 435.573 1367.61 435.04C1368.86 434.48 1369.99 433.64 1371.01 432.52L1374.37 435.72C1373.06 437.24 1371.46 438.4 1369.57 439.2C1367.67 440 1365.57 440.4 1363.25 440.4ZM1387.33 440.28C1385.15 440.28 1383.2 439.813 1381.49 438.88C1379.79 437.92 1378.44 436.613 1377.45 434.96C1376.47 433.307 1375.97 431.427 1375.97 429.32C1375.97 427.187 1376.47 425.307 1377.45 423.68C1378.44 422.027 1379.79 420.733 1381.49 419.8C1383.2 418.867 1385.15 418.4 1387.33 418.4C1389.55 418.4 1391.51 418.867 1393.21 419.8C1394.95 420.733 1396.29 422.013 1397.25 423.64C1398.24 425.267 1398.73 427.16 1398.73 429.32C1398.73 431.427 1398.24 433.307 1397.25 434.96C1396.29 436.613 1394.95 437.92 1393.21 438.88C1391.51 439.813 1389.55 440.28 1387.33 440.28ZM1387.33 436C1388.56 436 1389.65 435.733 1390.61 435.2C1391.57 434.667 1392.32 433.893 1392.85 432.88C1393.41 431.867 1393.69 430.68 1393.69 429.32C1393.69 427.933 1393.41 426.747 1392.85 425.76C1392.32 424.747 1391.57 423.973 1390.61 423.44C1389.65 422.907 1388.57 422.64 1387.37 422.64C1386.15 422.64 1385.05 422.907 1384.09 423.44C1383.16 423.973 1382.41 424.747 1381.85 425.76C1381.29 426.747 1381.01 427.933 1381.01 429.32C1381.01 430.68 1381.29 431.867 1381.85 432.88C1382.41 433.893 1383.16 434.667 1384.09 435.2C1385.05 435.733 1386.13 436 1387.33 436ZM1403.67 440V418.64H1420.07V422.88H1407.51L1408.67 421.76V440H1403.67ZM1419.15 439.96L1419.39 435.76C1419.57 435.787 1419.75 435.813 1419.91 435.84C1420.07 435.867 1420.21 435.88 1420.35 435.88C1421.17 435.88 1421.81 435.627 1422.27 435.12C1422.72 434.613 1423.05 433.933 1423.27 433.08C1423.51 432.2 1423.67 431.227 1423.75 430.16C1423.85 429.067 1423.93 427.973 1423.99 426.88L1424.35 418.64H1441.63V440H1436.63V421.52L1437.79 422.88H1427.63L1428.71 421.48L1428.43 427.12C1428.35 429.013 1428.19 430.773 1427.95 432.4C1427.73 434 1427.39 435.4 1426.91 436.6C1426.45 437.8 1425.81 438.733 1424.99 439.4C1424.19 440.067 1423.16 440.4 1421.91 440.4C1421.51 440.4 1421.07 440.36 1420.59 440.28C1420.13 440.2 1419.65 440.093 1419.15 439.96ZM1461.32 440V435.68L1461.04 434.76V427.2C1461.04 425.733 1460.6 424.6 1459.72 423.8C1458.84 422.973 1457.51 422.56 1455.72 422.56C1454.52 422.56 1453.33 422.747 1452.16 423.12C1451.01 423.493 1450.04 424.013 1449.24 424.68L1447.28 421.04C1448.43 420.16 1449.79 419.507 1451.36 419.08C1452.96 418.627 1454.61 418.4 1456.32 418.4C1459.41 418.4 1461.8 419.147 1463.48 420.64C1465.19 422.107 1466.04 424.387 1466.04 427.48V440H1461.32ZM1454.6 440.28C1453 440.28 1451.6 440.013 1450.4 439.48C1449.2 438.92 1448.27 438.16 1447.6 437.2C1446.96 436.213 1446.64 435.107 1446.64 433.88C1446.64 432.68 1446.92 431.6 1447.48 430.64C1448.07 429.68 1449.01 428.92 1450.32 428.36C1451.63 427.8 1453.36 427.52 1455.52 427.52H1461.72V430.84H1455.88C1454.17 430.84 1453.03 431.12 1452.44 431.68C1451.85 432.213 1451.56 432.88 1451.56 433.68C1451.56 434.587 1451.92 435.307 1452.64 435.84C1453.36 436.373 1454.36 436.64 1455.64 436.64C1456.87 436.64 1457.96 436.36 1458.92 435.8C1459.91 435.24 1460.61 434.413 1461.04 433.32L1461.88 436.32C1461.4 437.573 1460.53 438.547 1459.28 439.24C1458.05 439.933 1456.49 440.28 1454.6 440.28ZM1486.59 435.76L1485.51 436.96V418.64H1490.51V436.96L1489.31 435.76H1499.87L1498.71 436.96V418.64H1503.71V440H1472.23V418.64H1477.23V436.96L1476.07 435.76H1486.59ZM1520.39 440.28C1518.02 440.28 1515.94 439.813 1514.15 438.88C1512.39 437.92 1511.02 436.613 1510.03 434.96C1509.07 433.307 1508.59 431.427 1508.59 429.32C1508.59 427.187 1509.06 425.307 1509.99 423.68C1510.95 422.027 1512.26 420.733 1513.91 419.8C1515.59 418.867 1517.5 418.4 1519.63 418.4C1521.71 418.4 1523.56 418.853 1525.19 419.76C1526.82 420.667 1528.1 421.947 1529.03 423.6C1529.96 425.253 1530.43 427.2 1530.43 429.44C1530.43 429.653 1530.42 429.893 1530.39 430.16C1530.39 430.427 1530.38 430.68 1530.35 430.92H1512.55V427.6H1527.71L1525.75 428.64C1525.78 427.413 1525.52 426.333 1524.99 425.4C1524.46 424.467 1523.72 423.733 1522.79 423.2C1521.88 422.667 1520.83 422.4 1519.63 422.4C1518.4 422.4 1517.32 422.667 1516.39 423.2C1515.48 423.733 1514.76 424.48 1514.23 425.44C1513.72 426.373 1513.47 427.48 1513.47 428.76V429.56C1513.47 430.84 1513.76 431.973 1514.35 432.96C1514.94 433.947 1515.76 434.707 1516.83 435.24C1517.9 435.773 1519.12 436.04 1520.51 436.04C1521.71 436.04 1522.79 435.853 1523.75 435.48C1524.71 435.107 1525.56 434.52 1526.31 433.72L1528.99 436.8C1528.03 437.92 1526.82 438.787 1525.35 439.4C1523.91 439.987 1522.26 440.28 1520.39 440.28ZM1535.9 440V418.64H1540.9V427.32H1551.66V418.64H1556.66V440H1551.66V431.56H1540.9V440H1535.9ZM1563.36 440V418.64H1568.36V432.72L1580.16 418.64H1584.72V440H1579.72V425.92L1567.96 440H1563.36ZM1601.41 440.28C1599.03 440.28 1596.95 439.813 1595.17 438.88C1593.41 437.92 1592.03 436.613 1591.05 434.96C1590.09 433.307 1589.61 431.427 1589.61 429.32C1589.61 427.187 1590.07 425.307 1591.01 423.68C1591.97 422.027 1593.27 420.733 1594.93 419.8C1596.61 418.867 1598.51 418.4 1600.65 418.4C1602.73 418.4 1604.58 418.853 1606.21 419.76C1607.83 420.667 1609.11 421.947 1610.05 423.6C1610.98 425.253 1611.45 427.2 1611.45 429.44C1611.45 429.653 1611.43 429.893 1611.41 430.16C1611.41 430.427 1611.39 430.68 1611.37 430.92H1593.57V427.6H1608.73L1606.77 428.64C1606.79 427.413 1606.54 426.333 1606.01 425.4C1605.47 424.467 1604.74 423.733 1603.81 423.2C1602.9 422.667 1601.85 422.4 1600.65 422.4C1599.42 422.4 1598.34 422.667 1597.41 423.2C1596.5 423.733 1595.78 424.48 1595.25 425.44C1594.74 426.373 1594.49 427.48 1594.49 428.76V429.56C1594.49 430.84 1594.78 431.973 1595.37 432.96C1595.95 433.947 1596.78 434.707 1597.85 435.24C1598.91 435.773 1600.14 436.04 1601.53 436.04C1602.73 436.04 1603.81 435.853 1604.77 435.48C1605.73 435.107 1606.58 434.52 1607.33 433.72L1610.01 436.8C1609.05 437.92 1607.83 438.787 1606.37 439.4C1604.93 439.987 1603.27 440.28 1601.41 440.28Z" fill="white"/>
<path d="M1368.77 504L1359.29 490.36L1363.49 487.76L1374.65 504H1368.77ZM1350.25 504V476H1355.37V504H1350.25ZM1353.81 492.2V487.72H1363.25V492.2H1353.81ZM1363.97 490.6L1359.21 489.96L1368.77 476H1374.29L1363.97 490.6ZM1386.86 504.28C1384.68 504.28 1382.73 503.813 1381.02 502.88C1379.32 501.92 1377.97 500.613 1376.98 498.96C1376 497.307 1375.5 495.427 1375.5 493.32C1375.5 491.187 1376 489.307 1376.98 487.68C1377.97 486.027 1379.32 484.733 1381.02 483.8C1382.73 482.867 1384.68 482.4 1386.86 482.4C1389.08 482.4 1391.04 482.867 1392.74 483.8C1394.48 484.733 1395.82 486.013 1396.78 487.64C1397.77 489.267 1398.26 491.16 1398.26 493.32C1398.26 495.427 1397.77 497.307 1396.78 498.96C1395.82 500.613 1394.48 501.92 1392.74 502.88C1391.04 503.813 1389.08 504.28 1386.86 504.28ZM1386.86 500C1388.09 500 1389.18 499.733 1390.14 499.2C1391.1 498.667 1391.85 497.893 1392.38 496.88C1392.94 495.867 1393.22 494.68 1393.22 493.32C1393.22 491.933 1392.94 490.747 1392.38 489.76C1391.85 488.747 1391.1 487.973 1390.14 487.44C1389.18 486.907 1388.1 486.64 1386.9 486.64C1385.68 486.64 1384.58 486.907 1383.62 487.44C1382.69 487.973 1381.94 488.747 1381.38 489.76C1380.82 490.747 1380.54 491.933 1380.54 493.32C1380.54 494.68 1380.82 495.867 1381.38 496.88C1381.94 497.893 1382.69 498.667 1383.62 499.2C1384.58 499.733 1385.66 500 1386.86 500ZM1403.2 504V482.64H1408.2V491.32H1418.96V482.64H1423.96V504H1418.96V495.56H1408.2V504H1403.2ZM1444.22 504.4C1444.2 504.4 1444.08 504.4 1443.86 504.4C1443.68 504.4 1443.49 504.4 1443.3 504.4C1443.14 504.4 1443.04 504.4 1442.98 504.4C1438.48 504.347 1434.98 503.373 1432.5 501.48C1430.02 499.56 1428.78 496.827 1428.78 493.28C1428.78 489.76 1430.02 487.067 1432.5 485.2C1434.98 483.333 1438.52 482.373 1443.1 482.32C1443.16 482.32 1443.26 482.32 1443.42 482.32C1443.61 482.32 1443.78 482.32 1443.94 482.32C1444.13 482.32 1444.24 482.32 1444.26 482.32C1448.88 482.32 1452.46 483.267 1455.02 485.16C1457.61 487.027 1458.9 489.733 1458.9 493.28C1458.9 496.853 1457.61 499.6 1455.02 501.52C1452.46 503.44 1448.86 504.4 1444.22 504.4ZM1444.06 500.24C1446.33 500.24 1448.2 499.987 1449.66 499.48C1451.13 498.947 1452.22 498.173 1452.94 497.16C1453.66 496.12 1454.02 494.827 1454.02 493.28C1454.02 491.76 1453.66 490.507 1452.94 489.52C1452.22 488.507 1451.13 487.76 1449.66 487.28C1448.2 486.773 1446.33 486.52 1444.06 486.52C1444.01 486.52 1443.88 486.52 1443.66 486.52C1443.48 486.52 1443.36 486.52 1443.3 486.52C1441.09 486.52 1439.28 486.787 1437.86 487.32C1436.45 487.827 1435.4 488.573 1434.7 489.56C1434.04 490.547 1433.7 491.787 1433.7 493.28C1433.7 494.8 1434.04 496.067 1434.7 497.08C1435.4 498.093 1436.45 498.867 1437.86 499.4C1439.3 499.933 1441.12 500.213 1443.3 500.24C1443.36 500.24 1443.48 500.24 1443.66 500.24C1443.88 500.24 1444.01 500.24 1444.06 500.24ZM1441.46 511.76V474.32H1446.18V511.76H1441.46ZM1463.75 504V482.64H1468.75V496.72L1480.55 482.64H1485.11V504H1480.11V489.92L1468.35 504H1463.75ZM1506.48 501.68V486.88H1498.28L1498.16 490.32C1498.1 491.547 1498.02 492.733 1497.92 493.88C1497.81 495 1497.64 496.04 1497.4 497C1497.16 497.933 1496.81 498.707 1496.36 499.32C1495.9 499.933 1495.3 500.333 1494.56 500.52L1489.6 499.76C1490.4 499.76 1491.04 499.507 1491.52 499C1492.02 498.467 1492.41 497.747 1492.68 496.84C1492.97 495.907 1493.18 494.853 1493.32 493.68C1493.45 492.48 1493.54 491.24 1493.6 489.96L1493.88 482.64H1511.48V501.68H1506.48ZM1488.84 508.76V499.76H1514.64V508.76H1509.96V504H1493.48V508.76H1488.84ZM1529.06 504.28C1526.69 504.28 1524.61 503.813 1522.82 502.88C1521.06 501.92 1519.69 500.613 1518.7 498.96C1517.74 497.307 1517.26 495.427 1517.26 493.32C1517.26 491.187 1517.73 489.307 1518.66 487.68C1519.62 486.027 1520.93 484.733 1522.58 483.8C1524.26 482.867 1526.17 482.4 1528.3 482.4C1530.38 482.4 1532.24 482.853 1533.86 483.76C1535.49 484.667 1536.77 485.947 1537.7 487.6C1538.64 489.253 1539.1 491.2 1539.1 493.44C1539.1 493.653 1539.09 493.893 1539.06 494.16C1539.06 494.427 1539.05 494.68 1539.02 494.92H1521.22V491.6H1536.38L1534.42 492.64C1534.45 491.413 1534.2 490.333 1533.66 489.4C1533.13 488.467 1532.4 487.733 1531.46 487.2C1530.56 486.667 1529.5 486.4 1528.3 486.4C1527.08 486.4 1526 486.667 1525.06 487.2C1524.16 487.733 1523.44 488.48 1522.9 489.44C1522.4 490.373 1522.14 491.48 1522.14 492.76V493.56C1522.14 494.84 1522.44 495.973 1523.02 496.96C1523.61 497.947 1524.44 498.707 1525.5 499.24C1526.57 499.773 1527.8 500.04 1529.18 500.04C1530.38 500.04 1531.46 499.853 1532.42 499.48C1533.38 499.107 1534.24 498.52 1534.98 497.72L1537.66 500.8C1536.7 501.92 1535.49 502.787 1534.02 503.4C1532.58 503.987 1530.93 504.28 1529.06 504.28ZM1544.57 504V482.64H1549.57V491.32H1560.33V482.64H1565.33V504H1560.33V495.56H1549.57V504H1544.57ZM1572.03 504V482.64H1577.03V499.76H1587.23V482.64H1592.23V504H1572.03ZM1590.79 508.76V503.88L1591.95 504H1587.23V499.76H1595.47V508.76H1590.79ZM1599.92 504V482.64H1604.92V496.72L1616.72 482.64H1621.28V504H1616.28V489.92L1604.52 504H1599.92ZM1640.97 504V499.68L1640.69 498.76V491.2C1640.69 489.733 1640.25 488.6 1639.37 487.8C1638.49 486.973 1637.16 486.56 1635.37 486.56C1634.17 486.56 1632.98 486.747 1631.81 487.12C1630.66 487.493 1629.69 488.013 1628.89 488.68L1626.93 485.04C1628.08 484.16 1629.44 483.507 1631.01 483.08C1632.61 482.627 1634.26 482.4 1635.97 482.4C1639.06 482.4 1641.45 483.147 1643.13 484.64C1644.84 486.107 1645.69 488.387 1645.69 491.48V504H1640.97ZM1634.25 504.28C1632.65 504.28 1631.25 504.013 1630.05 503.48C1628.85 502.92 1627.92 502.16 1627.25 501.2C1626.61 500.213 1626.29 499.107 1626.29 497.88C1626.29 496.68 1626.57 495.6 1627.13 494.64C1627.72 493.68 1628.66 492.92 1629.97 492.36C1631.28 491.8 1633.01 491.52 1635.17 491.52H1641.37V494.84H1635.53C1633.82 494.84 1632.68 495.12 1632.09 495.68C1631.5 496.213 1631.21 496.88 1631.21 497.68C1631.21 498.587 1631.57 499.307 1632.29 499.84C1633.01 500.373 1634.01 500.64 1635.29 500.64C1636.52 500.64 1637.61 500.36 1638.57 499.8C1639.56 499.24 1640.26 498.413 1640.69 497.32L1641.53 500.32C1641.05 501.573 1640.18 502.547 1638.93 503.24C1637.7 503.933 1636.14 504.28 1634.25 504.28ZM1648.76 503.96L1649 499.76C1649.18 499.787 1649.36 499.813 1649.52 499.84C1649.68 499.867 1649.82 499.88 1649.96 499.88C1650.78 499.88 1651.42 499.627 1651.88 499.12C1652.33 498.613 1652.66 497.933 1652.88 497.08C1653.12 496.2 1653.28 495.227 1653.36 494.16C1653.46 493.067 1653.54 491.973 1653.6 490.88L1653.96 482.64H1671.24V504H1666.24V485.52L1667.4 486.88H1657.24L1658.32 485.48L1658.04 491.12C1657.96 493.013 1657.8 494.773 1657.56 496.4C1657.34 498 1657 499.4 1656.52 500.6C1656.06 501.8 1655.42 502.733 1654.6 503.4C1653.8 504.067 1652.77 504.4 1651.52 504.4C1651.12 504.4 1650.68 504.36 1650.2 504.28C1649.74 504.2 1649.26 504.093 1648.76 503.96ZM1688.69 489.68C1691.44 489.68 1693.53 490.293 1694.97 491.52C1696.41 492.747 1697.13 494.48 1697.13 496.72C1697.13 499.04 1696.33 500.853 1694.73 502.16C1693.13 503.44 1690.88 504.067 1687.97 504.04L1677.97 504V482.64H1682.97V489.64L1688.69 489.68ZM1687.53 500.36C1689 500.387 1690.12 500.08 1690.89 499.44C1691.66 498.8 1692.05 497.867 1692.05 496.64C1692.05 495.413 1691.66 494.533 1690.89 494C1690.14 493.44 1689.02 493.147 1687.53 493.12L1682.97 493.08V500.32L1687.53 500.36ZM1701.52 504V482.64H1706.52V491.32H1717.28V482.64H1722.28V504H1717.28V495.56H1706.52V504H1701.52ZM1738.51 504.28C1736.32 504.28 1734.37 503.813 1732.67 502.88C1730.96 501.92 1729.61 500.613 1728.63 498.96C1727.64 497.307 1727.15 495.427 1727.15 493.32C1727.15 491.187 1727.64 489.307 1728.63 487.68C1729.61 486.027 1730.96 484.733 1732.67 483.8C1734.37 482.867 1736.32 482.4 1738.51 482.4C1740.72 482.4 1742.68 482.867 1744.39 483.8C1746.12 484.733 1747.47 486.013 1748.43 487.64C1749.41 489.267 1749.91 491.16 1749.91 493.32C1749.91 495.427 1749.41 497.307 1748.43 498.96C1747.47 500.613 1746.12 501.92 1744.39 502.88C1742.68 503.813 1740.72 504.28 1738.51 504.28ZM1738.51 500C1739.73 500 1740.83 499.733 1741.79 499.2C1742.75 498.667 1743.49 497.893 1744.03 496.88C1744.59 495.867 1744.87 494.68 1744.87 493.32C1744.87 491.933 1744.59 490.747 1744.03 489.76C1743.49 488.747 1742.75 487.973 1741.79 487.44C1740.83 486.907 1739.75 486.64 1738.55 486.64C1737.32 486.64 1736.23 486.907 1735.27 487.44C1734.33 487.973 1733.59 488.747 1733.03 489.76C1732.47 490.747 1732.19 491.933 1732.19 493.32C1732.19 494.68 1732.47 495.867 1733.03 496.88C1733.59 497.893 1734.33 498.667 1735.27 499.2C1736.23 499.733 1737.31 500 1738.51 500ZM1764.56 504.28C1762.32 504.28 1760.32 503.813 1758.56 502.88C1756.83 501.92 1755.47 500.613 1754.48 498.96C1753.5 497.307 1753 495.427 1753 493.32C1753 491.187 1753.5 489.307 1754.48 487.68C1755.47 486.027 1756.83 484.733 1758.56 483.8C1760.32 482.867 1762.32 482.4 1764.56 482.4C1766.64 482.4 1768.47 482.827 1770.04 483.68C1771.64 484.507 1772.86 485.733 1773.68 487.36L1769.84 489.6C1769.2 488.587 1768.42 487.84 1767.48 487.36C1766.58 486.88 1765.59 486.64 1764.52 486.64C1763.3 486.64 1762.19 486.907 1761.2 487.44C1760.22 487.973 1759.44 488.747 1758.88 489.76C1758.32 490.747 1758.04 491.933 1758.04 493.32C1758.04 494.707 1758.32 495.907 1758.88 496.92C1759.44 497.907 1760.22 498.667 1761.2 499.2C1762.19 499.733 1763.3 500 1764.52 500C1765.59 500 1766.58 499.76 1767.48 499.28C1768.42 498.8 1769.2 498.053 1769.84 497.04L1773.68 499.28C1772.86 500.88 1771.64 502.12 1770.04 503C1768.47 503.853 1766.64 504.28 1764.56 504.28ZM1782.37 504V485.68L1783.53 486.88H1774.85V482.64H1794.85V486.88H1786.21L1787.37 485.68V504H1782.37ZM1809.2 489.68C1811.94 489.68 1814.04 490.293 1815.48 491.52C1816.92 492.747 1817.64 494.48 1817.64 496.72C1817.64 499.04 1816.84 500.853 1815.24 502.16C1813.64 503.44 1811.38 504.067 1808.48 504.04L1798.48 504V482.64H1803.48V489.64L1809.2 489.68ZM1808.04 500.36C1809.5 500.387 1810.62 500.08 1811.4 499.44C1812.17 498.8 1812.56 497.867 1812.56 496.64C1812.56 495.413 1812.17 494.533 1811.4 494C1810.65 493.44 1809.53 493.147 1808.04 493.12L1803.48 493.08V500.32L1808.04 500.36Z" fill="white"/>
<path d="M773.32 120.4H779.56V154H773.32V120.4ZM755.944 154H749.704V120.4H755.944V154ZM773.8 139.6H755.416V134.272H773.8V139.6ZM803.865 154V148.816L803.529 147.712V138.64C803.529 136.88 803.001 135.52 801.945 134.56C800.889 133.568 799.289 133.072 797.145 133.072C795.705 133.072 794.281 133.296 792.873 133.744C791.497 134.192 790.329 134.816 789.369 135.616L787.017 131.248C788.393 130.192 790.025 129.408 791.913 128.896C793.833 128.352 795.817 128.08 797.865 128.08C801.577 128.08 804.441 128.976 806.457 130.768C808.505 132.528 809.529 135.264 809.529 138.976V154H803.865ZM795.801 154.336C793.881 154.336 792.201 154.016 790.761 153.376C789.321 152.704 788.201 151.792 787.401 150.64C786.633 149.456 786.249 148.128 786.249 146.656C786.249 145.216 786.585 143.92 787.257 142.768C787.961 141.616 789.097 140.704 790.665 140.032C792.233 139.36 794.313 139.024 796.905 139.024H804.345V143.008H797.337C795.289 143.008 793.913 143.344 793.209 144.016C792.505 144.656 792.153 145.456 792.153 146.416C792.153 147.504 792.585 148.368 793.449 149.008C794.313 149.648 795.513 149.968 797.049 149.968C798.521 149.968 799.833 149.632 800.985 148.96C802.169 148.288 803.017 147.296 803.529 145.984L804.537 149.584C803.961 151.088 802.921 152.256 801.417 153.088C799.945 153.92 798.073 154.336 795.801 154.336ZM816.954 154V128.368H829.482C832.586 128.368 835.018 128.944 836.778 130.096C838.57 131.248 839.466 132.88 839.466 134.992C839.466 137.072 838.634 138.704 836.97 139.888C835.306 141.04 833.098 141.616 830.346 141.616L831.066 140.128C834.17 140.128 836.474 140.704 837.978 141.856C839.514 142.976 840.282 144.624 840.282 146.8C840.282 149.072 839.434 150.848 837.738 152.128C836.042 153.376 833.466 154 830.01 154H816.954ZM822.666 149.632H829.53C831.162 149.632 832.394 149.376 833.226 148.864C834.058 148.32 834.474 147.504 834.474 146.416C834.474 145.264 834.09 144.416 833.322 143.872C832.554 143.328 831.354 143.056 829.722 143.056H822.666V149.632ZM822.666 139.072H828.954C830.49 139.072 831.642 138.8 832.41 138.256C833.21 137.68 833.61 136.88 833.61 135.856C833.61 134.8 833.21 134.016 832.41 133.504C831.642 132.992 830.49 132.736 828.954 132.736H822.666V139.072ZM846.673 154V128.368H852.673V145.264L866.833 128.368H872.305V154H866.305V137.104L852.193 154H846.673ZM880.376 154V128.368H900.056V133.456H884.984L886.376 132.112V154H880.376ZM919.975 154V148.816L919.639 147.712V138.64C919.639 136.88 919.111 135.52 918.055 134.56C916.999 133.568 915.399 133.072 913.255 133.072C911.815 133.072 910.391 133.296 908.983 133.744C907.607 134.192 906.439 134.816 905.479 135.616L903.127 131.248C904.503 130.192 906.135 129.408 908.023 128.896C909.943 128.352 911.927 128.08 913.975 128.08C917.687 128.08 920.551 128.976 922.567 130.768C924.615 132.528 925.639 135.264 925.639 138.976V154H919.975ZM911.911 154.336C909.991 154.336 908.311 154.016 906.871 153.376C905.431 152.704 904.311 151.792 903.511 150.64C902.743 149.456 902.359 148.128 902.359 146.656C902.359 145.216 902.695 143.92 903.367 142.768C904.071 141.616 905.207 140.704 906.775 140.032C908.343 139.36 910.423 139.024 913.015 139.024H920.455V143.008H913.447C911.399 143.008 910.023 143.344 909.319 144.016C908.615 144.656 908.263 145.456 908.263 146.416C908.263 147.504 908.695 148.368 909.559 149.008C910.423 149.648 911.623 149.968 913.159 149.968C914.631 149.968 915.943 149.632 917.095 148.96C918.279 148.288 919.127 147.296 919.639 145.984L920.647 149.584C920.071 151.088 919.031 152.256 917.527 153.088C916.055 153.92 914.183 154.336 911.911 154.336ZM933.063 154V128.368H939.063V148.912H951.303V128.368H957.303V154H933.063ZM955.575 159.712V153.856L956.967 154H951.303V148.912H961.191V159.712H955.575ZM966.532 154V128.368H972.532V145.264L986.692 128.368H992.164V154H986.164V137.104L972.052 154H966.532ZM1016.51 154V145.264L1017.37 146.272H1009.69C1006.17 146.272 1003.4 145.536 1001.39 144.064C999.403 142.56 998.411 140.4 998.411 137.584C998.411 134.576 999.467 132.288 1001.58 130.72C1003.72 129.152 1006.57 128.368 1010.12 128.368H1021.88V154H1016.51ZM998.075 154L1004.99 144.208H1011.13L1004.51 154H998.075ZM1016.51 143.344V131.824L1017.37 133.408H1010.32C1008.46 133.408 1007.02 133.76 1006 134.464C1005 135.136 1004.51 136.24 1004.51 137.776C1004.51 140.656 1006.38 142.096 1010.12 142.096H1017.37L1016.51 143.344Z" fill="white"/>
<path d="M749 189H1159" stroke="white" stroke-width="3" stroke-linecap="round"/>
<path d="M768.6 220H773.8V248H768.6V220ZM754.12 248H748.92V220H754.12V248ZM769 236H753.68V231.56H769V236ZM794.054 248V243.68L793.774 242.76V235.2C793.774 233.733 793.334 232.6 792.454 231.8C791.574 230.973 790.241 230.56 788.454 230.56C787.254 230.56 786.068 230.747 784.894 231.12C783.748 231.493 782.774 232.013 781.974 232.68L780.014 229.04C781.161 228.16 782.521 227.507 784.094 227.08C785.694 226.627 787.348 226.4 789.054 226.4C792.148 226.4 794.534 227.147 796.214 228.64C797.921 230.107 798.774 232.387 798.774 235.48V248H794.054ZM787.334 248.28C785.734 248.28 784.334 248.013 783.134 247.48C781.934 246.92 781.001 246.16 780.334 245.2C779.694 244.213 779.374 243.107 779.374 241.88C779.374 240.68 779.654 239.6 780.214 238.64C780.801 237.68 781.748 236.92 783.054 236.36C784.361 235.8 786.094 235.52 788.254 235.52H794.454V238.84H788.614C786.908 238.84 785.761 239.12 785.174 239.68C784.588 240.213 784.294 240.88 784.294 241.68C784.294 242.587 784.654 243.307 785.374 243.84C786.094 244.373 787.094 244.64 788.374 244.64C789.601 244.64 790.694 244.36 791.654 243.8C792.641 243.24 793.348 242.413 793.774 241.32L794.614 244.32C794.134 245.573 793.268 246.547 792.014 247.24C790.788 247.933 789.228 248.28 787.334 248.28ZM804.962 248V226.64H815.402C817.988 226.64 820.015 227.12 821.482 228.08C822.975 229.04 823.722 230.4 823.722 232.16C823.722 233.893 823.028 235.253 821.642 236.24C820.255 237.2 818.415 237.68 816.122 237.68L816.722 236.44C819.308 236.44 821.228 236.92 822.482 237.88C823.762 238.813 824.402 240.187 824.402 242C824.402 243.893 823.695 245.373 822.282 246.44C820.868 247.48 818.722 248 815.842 248H804.962ZM809.722 244.36H815.442C816.802 244.36 817.828 244.147 818.522 243.72C819.215 243.267 819.562 242.587 819.562 241.68C819.562 240.72 819.242 240.013 818.602 239.56C817.962 239.107 816.962 238.88 815.602 238.88H809.722V244.36ZM809.722 235.56H814.962C816.242 235.56 817.202 235.333 817.842 234.88C818.508 234.4 818.842 233.733 818.842 232.88C818.842 232 818.508 231.347 817.842 230.92C817.202 230.493 816.242 230.28 814.962 230.28H809.722V235.56ZM839.687 248.28C837.314 248.28 835.234 247.813 833.447 246.88C831.687 245.92 830.314 244.613 829.327 242.96C828.367 241.307 827.887 239.427 827.887 237.32C827.887 235.187 828.354 233.307 829.287 231.68C830.247 230.027 831.554 228.733 833.207 227.8C834.887 226.867 836.794 226.4 838.927 226.4C841.007 226.4 842.861 226.853 844.487 227.76C846.114 228.667 847.394 229.947 848.327 231.6C849.261 233.253 849.727 235.2 849.727 237.44C849.727 237.653 849.714 237.893 849.687 238.16C849.687 238.427 849.674 238.68 849.647 238.92H831.847V235.6H847.007L845.047 236.64C845.074 235.413 844.821 234.333 844.287 233.4C843.754 232.467 843.021 231.733 842.087 231.2C841.181 230.667 840.127 230.4 838.927 230.4C837.701 230.4 836.621 230.667 835.687 231.2C834.781 231.733 834.061 232.48 833.527 233.44C833.021 234.373 832.767 235.48 832.767 236.76V237.56C832.767 238.84 833.061 239.973 833.647 240.96C834.234 241.947 835.061 242.707 836.127 243.24C837.194 243.773 838.421 244.04 839.807 244.04C841.007 244.04 842.087 243.853 843.047 243.48C844.007 243.107 844.861 242.52 845.607 241.72L848.287 244.8C847.327 245.92 846.114 246.787 844.647 247.4C843.207 247.987 841.554 248.28 839.687 248.28ZM867.036 248.28C865.303 248.28 863.716 247.88 862.276 247.08C860.863 246.28 859.729 245.08 858.876 243.48C858.049 241.853 857.636 239.8 857.636 237.32C857.636 234.813 858.036 232.76 858.836 231.16C859.663 229.56 860.783 228.373 862.196 227.6C863.609 226.8 865.223 226.4 867.036 226.4C869.143 226.4 870.996 226.853 872.596 227.76C874.223 228.667 875.503 229.933 876.436 231.56C877.396 233.187 877.876 235.107 877.876 237.32C877.876 239.533 877.396 241.467 876.436 243.12C875.503 244.747 874.223 246.013 872.596 246.92C870.996 247.827 869.143 248.28 867.036 248.28ZM855.196 255.76V226.64H859.956V231.68L859.796 237.36L860.196 243.04V255.76H855.196ZM866.476 244C867.676 244 868.743 243.733 869.676 243.2C870.636 242.667 871.396 241.893 871.956 240.88C872.516 239.867 872.796 238.68 872.796 237.32C872.796 235.933 872.516 234.747 871.956 233.76C871.396 232.747 870.636 231.973 869.676 231.44C868.743 230.907 867.676 230.64 866.476 230.64C865.276 230.64 864.196 230.907 863.236 231.44C862.276 231.973 861.516 232.747 860.956 233.76C860.396 234.747 860.116 235.933 860.116 237.32C860.116 238.68 860.396 239.867 860.956 240.88C861.516 241.893 862.276 242.667 863.236 243.2C864.196 243.733 865.276 244 866.476 244ZM878.989 248L888.389 235.76L888.309 238.44L879.349 226.64H884.909L891.189 235.04H889.069L895.389 226.64H900.789L891.749 238.44L891.789 235.76L901.149 248H895.509L888.909 239.08L890.989 239.36L884.509 248H878.989Z" fill="white"/>
<path d="M768.6 284H773.8V312H768.6V284ZM754.12 312H748.92V284H754.12V312ZM769 300H753.68V295.56H769V300ZM794.054 312V307.68L793.774 306.76V299.2C793.774 297.733 793.334 296.6 792.454 295.8C791.574 294.973 790.241 294.56 788.454 294.56C787.254 294.56 786.068 294.747 784.894 295.12C783.748 295.493 782.774 296.013 781.974 296.68L780.014 293.04C781.161 292.16 782.521 291.507 784.094 291.08C785.694 290.627 787.348 290.4 789.054 290.4C792.148 290.4 794.534 291.147 796.214 292.64C797.921 294.107 798.774 296.387 798.774 299.48V312H794.054ZM787.334 312.28C785.734 312.28 784.334 312.013 783.134 311.48C781.934 310.92 781.001 310.16 780.334 309.2C779.694 308.213 779.374 307.107 779.374 305.88C779.374 304.68 779.654 303.6 780.214 302.64C780.801 301.68 781.748 300.92 783.054 300.36C784.361 299.8 786.094 299.52 788.254 299.52H794.454V302.84H788.614C786.908 302.84 785.761 303.12 785.174 303.68C784.588 304.213 784.294 304.88 784.294 305.68C784.294 306.587 784.654 307.307 785.374 307.84C786.094 308.373 787.094 308.64 788.374 308.64C789.601 308.64 790.694 308.36 791.654 307.8C792.641 307.24 793.348 306.413 793.774 305.32L794.614 308.32C794.134 309.573 793.268 310.547 792.014 311.24C790.788 311.933 789.228 312.28 787.334 312.28ZM819.322 307.76L818.242 308.96V290.64H823.242V308.96L822.042 307.76H832.602L831.442 308.96V290.64H836.442V312H804.962V290.64H809.962V308.96L808.802 307.76H819.322ZM843.165 312V290.64H848.165V304.72L859.965 290.64H864.525V312H859.525V297.92L847.765 312H843.165ZM897.625 312L889.905 301.76L893.985 299.24L903.505 312H897.625ZM882.305 312V290.64H887.305V312H882.305ZM885.825 303.44V299.28H893.065V303.44H885.825ZM894.465 301.92L889.785 301.36L897.625 290.64H902.985L894.465 301.92ZM907.741 320.04C906.701 320.04 905.661 319.867 904.621 319.52C903.581 319.173 902.714 318.693 902.021 318.08L904.021 314.4C904.528 314.853 905.101 315.213 905.741 315.48C906.381 315.747 907.034 315.88 907.701 315.88C908.608 315.88 909.341 315.653 909.901 315.2C910.461 314.747 910.981 313.987 911.461 312.92L912.701 310.12L913.101 309.52L921.181 290.64H925.981L915.981 313.72C915.314 315.32 914.568 316.587 913.741 317.52C912.941 318.453 912.034 319.107 911.021 319.48C910.034 319.853 908.941 320.04 907.741 320.04ZM912.141 312.76L902.501 290.64H907.701L915.541 309.08L912.141 312.76ZM941.294 312.28C939.56 312.28 937.974 311.88 936.534 311.08C935.12 310.28 933.987 309.08 933.134 307.48C932.307 305.853 931.894 303.8 931.894 301.32C931.894 298.813 932.294 296.76 933.094 295.16C933.92 293.56 935.04 292.373 936.454 291.6C937.867 290.8 939.48 290.4 941.294 290.4C943.4 290.4 945.254 290.853 946.854 291.76C948.48 292.667 949.76 293.933 950.694 295.56C951.654 297.187 952.134 299.107 952.134 301.32C952.134 303.533 951.654 305.467 950.694 307.12C949.76 308.747 948.48 310.013 946.854 310.92C945.254 311.827 943.4 312.28 941.294 312.28ZM929.454 319.76V290.64H934.214V295.68L934.054 301.36L934.454 307.04V319.76H929.454ZM940.734 308C941.934 308 943 307.733 943.934 307.2C944.894 306.667 945.654 305.893 946.214 304.88C946.774 303.867 947.054 302.68 947.054 301.32C947.054 299.933 946.774 298.747 946.214 297.76C945.654 296.747 944.894 295.973 943.934 295.44C943 294.907 941.934 294.64 940.734 294.64C939.534 294.64 938.454 294.907 937.494 295.44C936.534 295.973 935.774 296.747 935.214 297.76C934.654 298.747 934.374 299.933 934.374 301.32C934.374 302.68 934.654 303.867 935.214 304.88C935.774 305.893 936.534 306.667 937.494 307.2C938.454 307.733 939.534 308 940.734 308ZM966.83 312.28C964.59 312.28 962.59 311.813 960.83 310.88C959.097 309.92 957.737 308.613 956.75 306.96C955.763 305.307 955.27 303.427 955.27 301.32C955.27 299.187 955.763 297.307 956.75 295.68C957.737 294.027 959.097 292.733 960.83 291.8C962.59 290.867 964.59 290.4 966.83 290.4C968.91 290.4 970.737 290.827 972.31 291.68C973.91 292.507 975.123 293.733 975.95 295.36L972.11 297.6C971.47 296.587 970.683 295.84 969.75 295.36C968.843 294.88 967.857 294.64 966.79 294.64C965.563 294.64 964.457 294.907 963.47 295.44C962.483 295.973 961.71 296.747 961.15 297.76C960.59 298.747 960.31 299.933 960.31 301.32C960.31 302.707 960.59 303.907 961.15 304.92C961.71 305.907 962.483 306.667 963.47 307.2C964.457 307.733 965.563 308 966.79 308C967.857 308 968.843 307.76 969.75 307.28C970.683 306.8 971.47 306.053 972.11 305.04L975.95 307.28C975.123 308.88 973.91 310.12 972.31 311C970.737 311.853 968.91 312.28 966.83 312.28ZM1001.91 312V290.64H1006.91V312H1001.91ZM990.752 297.68C993.499 297.68 995.579 298.293 996.992 299.52C998.432 300.747 999.152 302.48 999.152 304.72C999.152 307.04 998.352 308.853 996.752 310.16C995.179 311.44 992.939 312.067 990.032 312.04L980.352 312V290.64H985.352V297.64L990.752 297.68ZM989.592 308.36C991.059 308.387 992.179 308.08 992.952 307.44C993.726 306.8 994.112 305.867 994.112 304.64C994.112 303.413 993.726 302.533 992.952 302C992.206 301.44 991.086 301.147 989.592 301.12L985.352 301.08V308.32L989.592 308.36Z" fill="white"/>
<path d="M768.6 348H773.8V376H768.6V348ZM754.12 376H748.92V348H754.12V376ZM769 364H753.68V359.56H769V364ZM794.054 376V371.68L793.774 370.76V363.2C793.774 361.733 793.334 360.6 792.454 359.8C791.574 358.973 790.241 358.56 788.454 358.56C787.254 358.56 786.068 358.747 784.894 359.12C783.748 359.493 782.774 360.013 781.974 360.68L780.014 357.04C781.161 356.16 782.521 355.507 784.094 355.08C785.694 354.627 787.348 354.4 789.054 354.4C792.148 354.4 794.534 355.147 796.214 356.64C797.921 358.107 798.774 360.387 798.774 363.48V376H794.054ZM787.334 376.28C785.734 376.28 784.334 376.013 783.134 375.48C781.934 374.92 781.001 374.16 780.334 373.2C779.694 372.213 779.374 371.107 779.374 369.88C779.374 368.68 779.654 367.6 780.214 366.64C780.801 365.68 781.748 364.92 783.054 364.36C784.361 363.8 786.094 363.52 788.254 363.52H794.454V366.84H788.614C786.908 366.84 785.761 367.12 785.174 367.68C784.588 368.213 784.294 368.88 784.294 369.68C784.294 370.587 784.654 371.307 785.374 371.84C786.094 372.373 787.094 372.64 788.374 372.64C789.601 372.64 790.694 372.36 791.654 371.8C792.641 371.24 793.348 370.413 793.774 369.32L794.614 372.32C794.134 373.573 793.268 374.547 792.014 375.24C790.788 375.933 789.228 376.28 787.334 376.28ZM819.322 371.76L818.242 372.96V354.64H823.242V372.96L822.042 371.76H832.602L831.442 372.96V354.64H836.442V376H804.962V354.64H809.962V372.96L808.802 371.76H819.322ZM843.165 376V354.64H848.165V368.72L859.965 354.64H864.525V376H859.525V361.92L847.765 376H843.165ZM892.025 376.28C889.785 376.28 887.785 375.813 886.025 374.88C884.292 373.92 882.932 372.613 881.945 370.96C880.959 369.307 880.465 367.427 880.465 365.32C880.465 363.187 880.959 361.307 881.945 359.68C882.932 358.027 884.292 356.733 886.025 355.8C887.785 354.867 889.785 354.4 892.025 354.4C894.105 354.4 895.932 354.827 897.505 355.68C899.105 356.507 900.319 357.733 901.145 359.36L897.305 361.6C896.665 360.587 895.879 359.84 894.945 359.36C894.039 358.88 893.052 358.64 891.985 358.64C890.759 358.64 889.652 358.907 888.665 359.44C887.679 359.973 886.905 360.747 886.345 361.76C885.785 362.747 885.505 363.933 885.505 365.32C885.505 366.707 885.785 367.907 886.345 368.92C886.905 369.907 887.679 370.667 888.665 371.2C889.652 371.733 890.759 372 891.985 372C893.052 372 894.039 371.76 894.945 371.28C895.879 370.8 896.665 370.053 897.305 369.04L901.145 371.28C900.319 372.88 899.105 374.12 897.505 375C895.932 375.853 894.105 376.28 892.025 376.28ZM905.548 376V354.64H926.028V376H921.068V357.72L922.228 358.88H909.388L910.548 357.72V376H905.548ZM942.734 376.28C940.361 376.28 938.281 375.813 936.494 374.88C934.734 373.92 933.361 372.613 932.374 370.96C931.414 369.307 930.934 367.427 930.934 365.32C930.934 363.187 931.401 361.307 932.334 359.68C933.294 358.027 934.601 356.733 936.254 355.8C937.934 354.867 939.841 354.4 941.974 354.4C944.054 354.4 945.907 354.853 947.534 355.76C949.161 356.667 950.441 357.947 951.374 359.6C952.307 361.253 952.774 363.2 952.774 365.44C952.774 365.653 952.761 365.893 952.734 366.16C952.734 366.427 952.721 366.68 952.694 366.92H934.894V363.6H950.054L948.094 364.64C948.121 363.413 947.867 362.333 947.334 361.4C946.801 360.467 946.067 359.733 945.134 359.2C944.227 358.667 943.174 358.4 941.974 358.4C940.747 358.4 939.667 358.667 938.734 359.2C937.827 359.733 937.107 360.48 936.574 361.44C936.067 362.373 935.814 363.48 935.814 364.76V365.56C935.814 366.84 936.107 367.973 936.694 368.96C937.281 369.947 938.107 370.707 939.174 371.24C940.241 371.773 941.467 372.04 942.854 372.04C944.054 372.04 945.134 371.853 946.094 371.48C947.054 371.107 947.907 370.52 948.654 369.72L951.334 372.8C950.374 373.92 949.161 374.787 947.694 375.4C946.254 375.987 944.601 376.28 942.734 376.28ZM958.243 376V354.64H963.243V371.76H973.443V354.64H978.443V376H958.243ZM977.003 380.76V375.88L978.163 376H973.443V371.76H981.683V380.76H977.003ZM986.133 376V354.64H991.133V368.72L1002.93 354.64H1007.49V376H1002.49V361.92L990.733 376H986.133ZM1027.18 376V371.68L1026.9 370.76V363.2C1026.9 361.733 1026.46 360.6 1025.58 359.8C1024.7 358.973 1023.37 358.56 1021.58 358.56C1020.38 358.56 1019.19 358.747 1018.02 359.12C1016.87 359.493 1015.9 360.013 1015.1 360.68L1013.14 357.04C1014.29 356.16 1015.65 355.507 1017.22 355.08C1018.82 354.627 1020.47 354.4 1022.18 354.4C1025.27 354.4 1027.66 355.147 1029.34 356.64C1031.05 358.107 1031.9 360.387 1031.9 363.48V376H1027.18ZM1020.46 376.28C1018.86 376.28 1017.46 376.013 1016.26 375.48C1015.06 374.92 1014.13 374.16 1013.46 373.2C1012.82 372.213 1012.5 371.107 1012.5 369.88C1012.5 368.68 1012.78 367.6 1013.34 366.64C1013.93 365.68 1014.87 364.92 1016.18 364.36C1017.49 363.8 1019.22 363.52 1021.38 363.52H1027.58V366.84H1021.74C1020.03 366.84 1018.89 367.12 1018.3 367.68C1017.71 368.213 1017.42 368.88 1017.42 369.68C1017.42 370.587 1017.78 371.307 1018.5 371.84C1019.22 372.373 1020.22 372.64 1021.5 372.64C1022.73 372.64 1023.82 372.36 1024.78 371.8C1025.77 371.24 1026.47 370.413 1026.9 369.32L1027.74 372.32C1027.26 373.573 1026.39 374.547 1025.14 375.24C1023.91 375.933 1022.35 376.28 1020.46 376.28ZM1034.97 375.96L1035.21 371.76C1035.39 371.787 1035.57 371.813 1035.73 371.84C1035.89 371.867 1036.03 371.88 1036.17 371.88C1036.99 371.88 1037.63 371.627 1038.09 371.12C1038.54 370.613 1038.87 369.933 1039.09 369.08C1039.33 368.2 1039.49 367.227 1039.57 366.16C1039.67 365.067 1039.75 363.973 1039.81 362.88L1040.17 354.64H1057.45V376H1052.45V357.52L1053.61 358.88H1043.45L1044.53 357.48L1044.25 363.12C1044.17 365.013 1044.01 366.773 1043.77 368.4C1043.55 370 1043.21 371.4 1042.73 372.6C1042.27 373.8 1041.63 374.733 1040.81 375.4C1040.01 376.067 1038.98 376.4 1037.73 376.4C1037.33 376.4 1036.89 376.36 1036.41 376.28C1035.95 376.2 1035.47 376.093 1034.97 375.96ZM1064.18 376V354.64H1069.18V368.72L1080.98 354.64H1085.54V376H1080.54V361.92L1068.78 376H1064.18ZM1101.99 376.28C1099.75 376.28 1097.75 375.813 1095.99 374.88C1094.25 373.92 1092.89 372.613 1091.91 370.96C1090.92 369.307 1090.43 367.427 1090.43 365.32C1090.43 363.187 1090.92 361.307 1091.91 359.68C1092.89 358.027 1094.25 356.733 1095.99 355.8C1097.75 354.867 1099.75 354.4 1101.99 354.4C1104.07 354.4 1105.89 354.827 1107.47 355.68C1109.07 356.507 1110.28 357.733 1111.11 359.36L1107.27 361.6C1106.63 360.587 1105.84 359.84 1104.91 359.36C1104 358.88 1103.01 358.64 1101.95 358.64C1100.72 358.64 1099.61 358.907 1098.63 359.44C1097.64 359.973 1096.87 360.747 1096.31 361.76C1095.75 362.747 1095.47 363.933 1095.47 365.32C1095.47 366.707 1095.75 367.907 1096.31 368.92C1096.87 369.907 1097.64 370.667 1098.63 371.2C1099.61 371.733 1100.72 372 1101.95 372C1103.01 372 1104 371.76 1104.91 371.28C1105.84 370.8 1106.63 370.053 1107.27 369.04L1111.11 371.28C1110.28 372.88 1109.07 374.12 1107.47 375C1105.89 375.853 1104.07 376.28 1101.99 376.28ZM1119.79 376V357.68L1120.95 358.88H1112.27V354.64H1132.27V358.88H1123.63L1124.79 357.68V376H1119.79ZM1157.46 376V354.64H1162.46V376H1157.46ZM1146.3 361.68C1149.05 361.68 1151.13 362.293 1152.54 363.52C1153.98 364.747 1154.7 366.48 1154.7 368.72C1154.7 371.04 1153.9 372.853 1152.3 374.16C1150.73 375.44 1148.49 376.067 1145.58 376.04L1135.9 376V354.64H1140.9V361.64L1146.3 361.68ZM1145.14 372.36C1146.61 372.387 1147.73 372.08 1148.5 371.44C1149.27 370.8 1149.66 369.867 1149.66 368.64C1149.66 367.413 1149.27 366.533 1148.5 366C1147.75 365.44 1146.63 365.147 1145.14 365.12L1140.9 365.08V372.32L1145.14 372.36Z" fill="white"/>
<path d="M748.96 440V412H767.96L767.92 416.4H752.84L754.04 415.16L754.08 440H748.96ZM784.718 440V435.68L784.438 434.76V427.2C784.438 425.733 783.998 424.6 783.118 423.8C782.238 422.973 780.905 422.56 779.118 422.56C777.918 422.56 776.732 422.747 775.558 423.12C774.412 423.493 773.438 424.013 772.638 424.68L770.678 421.04C771.825 420.16 773.185 419.507 774.758 419.08C776.358 418.627 778.012 418.4 779.718 418.4C782.812 418.4 785.198 419.147 786.878 420.64C788.585 422.107 789.438 424.387 789.438 427.48V440H784.718ZM777.998 440.28C776.398 440.28 774.998 440.013 773.798 439.48C772.598 438.92 771.665 438.16 770.998 437.2C770.358 436.213 770.038 435.107 770.038 433.88C770.038 432.68 770.318 431.6 770.878 430.64C771.465 429.68 772.412 428.92 773.718 428.36C775.025 427.8 776.758 427.52 778.918 427.52H785.118V430.84H779.278C777.572 430.84 776.425 431.12 775.838 431.68C775.252 432.213 774.958 432.88 774.958 433.68C774.958 434.587 775.318 435.307 776.038 435.84C776.758 436.373 777.758 436.64 779.038 436.64C780.265 436.64 781.358 436.36 782.318 435.8C783.305 435.24 784.012 434.413 784.438 433.32L785.278 436.32C784.798 437.573 783.932 438.547 782.678 439.24C781.452 439.933 779.892 440.28 777.998 440.28ZM792.506 439.96L792.746 435.76C792.932 435.787 793.106 435.813 793.266 435.84C793.426 435.867 793.572 435.88 793.706 435.88C794.532 435.88 795.172 435.627 795.626 435.12C796.079 434.613 796.412 433.933 796.626 433.08C796.866 432.2 797.026 431.227 797.106 430.16C797.212 429.067 797.292 427.973 797.346 426.88L797.706 418.64H814.986V440H809.986V421.52L811.146 422.88H800.986L802.066 421.48L801.786 427.12C801.706 429.013 801.546 430.773 801.306 432.4C801.092 434 800.746 435.4 800.266 436.6C799.812 437.8 799.172 438.733 798.346 439.4C797.546 440.067 796.519 440.4 795.266 440.4C794.866 440.4 794.426 440.36 793.946 440.28C793.492 440.2 793.012 440.093 792.506 439.96ZM831.679 440.28C829.306 440.28 827.226 439.813 825.439 438.88C823.679 437.92 822.306 436.613 821.319 434.96C820.359 433.307 819.879 431.427 819.879 429.32C819.879 427.187 820.346 425.307 821.279 423.68C822.239 422.027 823.546 420.733 825.199 419.8C826.879 418.867 828.786 418.4 830.919 418.4C832.999 418.4 834.853 418.853 836.479 419.76C838.106 420.667 839.386 421.947 840.319 423.6C841.253 425.253 841.719 427.2 841.719 429.44C841.719 429.653 841.706 429.893 841.679 430.16C841.679 430.427 841.666 430.68 841.639 430.92H823.839V427.6H838.999L837.039 428.64C837.066 427.413 836.813 426.333 836.279 425.4C835.746 424.467 835.013 423.733 834.079 423.2C833.173 422.667 832.119 422.4 830.919 422.4C829.693 422.4 828.613 422.667 827.679 423.2C826.773 423.733 826.053 424.48 825.519 425.44C825.013 426.373 824.759 427.48 824.759 428.76V429.56C824.759 430.84 825.053 431.973 825.639 432.96C826.226 433.947 827.053 434.707 828.119 435.24C829.186 435.773 830.413 436.04 831.799 436.04C832.999 436.04 834.079 435.853 835.039 435.48C835.999 435.107 836.853 434.52 837.599 433.72L840.279 436.8C839.319 437.92 838.106 438.787 836.639 439.4C835.199 439.987 833.546 440.28 831.679 440.28ZM859.028 440.28C857.295 440.28 855.708 439.88 854.268 439.08C852.855 438.28 851.721 437.08 850.868 435.48C850.041 433.853 849.628 431.8 849.628 429.32C849.628 426.813 850.028 424.76 850.828 423.16C851.655 421.56 852.775 420.373 854.188 419.6C855.601 418.8 857.215 418.4 859.028 418.4C861.135 418.4 862.988 418.853 864.588 419.76C866.215 420.667 867.495 421.933 868.428 423.56C869.388 425.187 869.868 427.107 869.868 429.32C869.868 431.533 869.388 433.467 868.428 435.12C867.495 436.747 866.215 438.013 864.588 438.92C862.988 439.827 861.135 440.28 859.028 440.28ZM847.188 447.76V418.64H851.948V423.68L851.788 429.36L852.188 435.04V447.76H847.188ZM858.468 436C859.668 436 860.735 435.733 861.668 435.2C862.628 434.667 863.388 433.893 863.948 432.88C864.508 431.867 864.788 430.68 864.788 429.32C864.788 427.933 864.508 426.747 863.948 425.76C863.388 424.747 862.628 423.973 861.668 423.44C860.735 422.907 859.668 422.64 858.468 422.64C857.268 422.64 856.188 422.907 855.228 423.44C854.268 423.973 853.508 424.747 852.948 425.76C852.388 426.747 852.108 427.933 852.108 429.32C852.108 430.68 852.388 431.867 852.948 432.88C853.508 433.893 854.268 434.667 855.228 435.2C856.188 435.733 857.268 436 858.468 436ZM884.804 440.28C882.431 440.28 880.351 439.813 878.564 438.88C876.804 437.92 875.431 436.613 874.444 434.96C873.484 433.307 873.004 431.427 873.004 429.32C873.004 427.187 873.471 425.307 874.404 423.68C875.364 422.027 876.671 420.733 878.324 419.8C880.004 418.867 881.911 418.4 884.044 418.4C886.124 418.4 887.978 418.853 889.604 419.76C891.231 420.667 892.511 421.947 893.444 423.6C894.378 425.253 894.844 427.2 894.844 429.44C894.844 429.653 894.831 429.893 894.804 430.16C894.804 430.427 894.791 430.68 894.764 430.92H876.964V427.6H892.124L890.164 428.64C890.191 427.413 889.938 426.333 889.404 425.4C888.871 424.467 888.138 423.733 887.204 423.2C886.298 422.667 885.244 422.4 884.044 422.4C882.818 422.4 881.738 422.667 880.804 423.2C879.898 423.733 879.178 424.48 878.644 425.44C878.138 426.373 877.884 427.48 877.884 428.76V429.56C877.884 430.84 878.178 431.973 878.764 432.96C879.351 433.947 880.178 434.707 881.244 435.24C882.311 435.773 883.538 436.04 884.924 436.04C886.124 436.04 887.204 435.853 888.164 435.48C889.124 435.107 889.978 434.52 890.724 433.72L893.404 436.8C892.444 437.92 891.231 438.787 889.764 439.4C888.324 439.987 886.671 440.28 884.804 440.28ZM913.287 440V432.72L914.007 433.56H907.607C904.674 433.56 902.367 432.947 900.687 431.72C899.034 430.467 898.207 428.667 898.207 426.32C898.207 423.813 899.087 421.907 900.847 420.6C902.634 419.293 905.007 418.64 907.967 418.64H917.767V440H913.287ZM897.927 440L903.687 431.84H908.807L903.287 440H897.927ZM913.287 431.12V421.52L914.007 422.84H908.127C906.581 422.84 905.381 423.133 904.527 423.72C903.701 424.28 903.287 425.2 903.287 426.48C903.287 428.88 904.847 430.08 907.967 430.08H914.007L913.287 431.12Z" fill="white"/>
<path d="M761.92 504.4C759.733 504.4 757.72 504.04 755.88 503.32C754.04 502.6 752.44 501.6 751.08 500.32C749.72 499.013 748.667 497.493 747.92 495.76C747.173 494 746.8 492.08 746.8 490C746.8 487.92 747.173 486.013 747.92 484.28C748.667 482.52 749.72 481 751.08 479.72C752.44 478.413 754.04 477.4 755.88 476.68C757.72 475.96 759.72 475.6 761.88 475.6C764.067 475.6 766.067 475.96 767.88 476.68C769.72 477.4 771.32 478.413 772.68 479.72C774.04 481 775.093 482.52 775.84 484.28C776.587 486.013 776.96 487.92 776.96 490C776.96 492.08 776.587 494 775.84 495.76C775.093 497.52 774.04 499.04 772.68 500.32C771.32 501.6 769.72 502.6 767.88 503.32C766.067 504.04 764.08 504.4 761.92 504.4ZM761.88 499.84C763.293 499.84 764.6 499.6 765.8 499.12C767 498.64 768.04 497.96 768.92 497.08C769.8 496.173 770.48 495.133 770.96 493.96C771.467 492.76 771.72 491.44 771.72 490C771.72 488.56 771.467 487.253 770.96 486.08C770.48 484.88 769.8 483.84 768.92 482.96C768.04 482.053 767 481.36 765.8 480.88C764.6 480.4 763.293 480.16 761.88 480.16C760.467 480.16 759.16 480.4 757.96 480.88C756.787 481.36 755.747 482.053 754.84 482.96C753.96 483.84 753.267 484.88 752.76 486.08C752.28 487.253 752.04 488.56 752.04 490C752.04 491.413 752.28 492.72 752.76 493.92C753.267 495.12 753.96 496.173 754.84 497.08C755.72 497.96 756.76 498.64 757.96 499.12C759.16 499.6 760.467 499.84 761.88 499.84ZM786.238 504V485.68L787.398 486.88H778.718V482.64H798.718V486.88H790.078L791.238 485.68V504H786.238ZM808.753 504.36C807.126 504.36 805.513 504.173 803.913 503.8C802.339 503.4 800.913 502.84 799.633 502.12L801.033 498.4C802.073 498.987 803.246 499.44 804.553 499.76C805.859 500.08 807.166 500.24 808.473 500.24C809.593 500.24 810.553 500.133 811.353 499.92C812.153 499.68 812.766 499.333 813.193 498.88C813.646 498.427 813.873 497.907 813.873 497.32C813.873 496.467 813.499 495.827 812.753 495.4C812.033 494.947 810.993 494.72 809.633 494.72H805.513V491.36H809.233C810.086 491.36 810.806 491.267 811.393 491.08C812.006 490.893 812.473 490.613 812.793 490.24C813.113 489.867 813.273 489.427 813.273 488.92C813.273 488.413 813.073 487.973 812.673 487.6C812.299 487.2 811.753 486.907 811.033 486.72C810.313 486.507 809.446 486.4 808.433 486.4C807.366 486.4 806.259 486.533 805.113 486.8C803.993 487.067 802.846 487.453 801.673 487.96L800.393 484.28C801.753 483.667 803.073 483.2 804.353 482.88C805.659 482.533 806.953 482.347 808.233 482.32C810.179 482.24 811.913 482.44 813.433 482.92C814.953 483.4 816.153 484.093 817.033 485C817.913 485.907 818.353 486.973 818.353 488.2C818.353 489.213 818.033 490.133 817.393 490.96C816.779 491.76 815.926 492.387 814.833 492.84C813.766 493.293 812.539 493.52 811.153 493.52L811.313 492.44C813.686 492.44 815.553 492.92 816.913 493.88C818.273 494.813 818.953 496.093 818.953 497.72C818.953 499.027 818.513 500.187 817.633 501.2C816.753 502.187 815.539 502.96 813.993 503.52C812.473 504.08 810.726 504.36 808.753 504.36ZM845.662 504V482.64H850.662V504H845.662ZM834.502 489.68C837.249 489.68 839.329 490.293 840.742 491.52C842.182 492.747 842.902 494.48 842.902 496.72C842.902 499.04 842.102 500.853 840.502 502.16C838.929 503.44 836.689 504.067 833.782 504.04L824.102 504V482.64H829.102V489.64L834.502 489.68ZM833.342 500.36C834.809 500.387 835.929 500.08 836.702 499.44C837.476 498.8 837.862 497.867 837.862 496.64C837.862 495.413 837.476 494.533 836.702 494C835.956 493.44 834.836 493.147 833.342 493.12L829.102 493.08V500.32L833.342 500.36ZM857.383 504V482.64H867.823C870.41 482.64 872.437 483.12 873.903 484.08C875.397 485.04 876.143 486.4 876.143 488.16C876.143 489.893 875.45 491.253 874.063 492.24C872.677 493.2 870.837 493.68 868.543 493.68L869.143 492.44C871.73 492.44 873.65 492.92 874.903 493.88C876.183 494.813 876.823 496.187 876.823 498C876.823 499.893 876.117 501.373 874.703 502.44C873.29 503.48 871.143 504 868.263 504H857.383ZM862.143 500.36H867.863C869.223 500.36 870.25 500.147 870.943 499.72C871.637 499.267 871.983 498.587 871.983 497.68C871.983 496.72 871.663 496.013 871.023 495.56C870.383 495.107 869.383 494.88 868.023 494.88H862.143V500.36ZM862.143 491.56H867.383C868.663 491.56 869.623 491.333 870.263 490.88C870.93 490.4 871.263 489.733 871.263 488.88C871.263 488 870.93 487.347 870.263 486.92C869.623 486.493 868.663 486.28 867.383 486.28H862.143V491.56ZM903.709 504V482.64H908.709V504H903.709ZM892.549 489.68C895.296 489.68 897.376 490.293 898.789 491.52C900.229 492.747 900.949 494.48 900.949 496.72C900.949 499.04 900.149 500.853 898.549 502.16C896.976 503.44 894.736 504.067 891.829 504.04L882.149 504V482.64H887.149V489.64L892.549 489.68ZM891.389 500.36C892.856 500.387 893.976 500.08 894.749 499.44C895.522 498.8 895.909 497.867 895.909 496.64C895.909 495.413 895.522 494.533 894.749 494C894.002 493.44 892.882 493.147 891.389 493.12L887.149 493.08V500.32L891.389 500.36Z" fill="white"/>
</g>
<defs>
<clipPath id="clip0_41_4">
<rect width="1920" height="690" fill="white"/>
</clipPath>
</defs>
</svg>
